<svg width="128" height="41" viewBox="0 0 128 41" fill="none" xmlns="http://www.w3.org/2000/svg">
<path opacity="0.65" d="M20.1641 28.6122L21.0771 29.0201L21.079 29.0158L20.1641 28.6122ZM21.9555 24.5516L22.8705 24.9552L23.3276 23.9191L22.2429 23.5937L21.9555 24.5516ZM21.5574 24.4321L21.8448 23.4743L20.9849 23.2163L20.636 24.0436L21.5574 24.4321ZM7.02679 29.1297L6.04171 28.9576L5.97288 29.3516L6.19474 29.6844L7.02679 29.1297ZM9.33577 15.9128V14.9128H8.49533L8.35069 15.7407L9.33577 15.9128ZM18.5319 18.8985L17.5367 18.801L17.5364 18.8037L18.5319 18.8985ZM18.4523 19.7345L17.4568 19.6397L17.3525 20.7345H18.4523V19.7345ZM18.8106 19.7345V20.7345H19.6304L19.7911 19.9307L18.8106 19.7345ZM18.8902 19.3364L19.8708 19.5326L19.872 19.5265L18.8902 19.3364ZM19.4077 15.4749L18.4244 15.2928L18.4211 15.3105L18.4185 15.3283L19.4077 15.4749ZM20.2437 11.6133L19.2631 11.4172L19.2619 11.4233L20.2437 11.6133ZM20.3233 11.2152L21.3039 11.4113L21.5431 10.2152H20.3233V11.2152ZM19.965 11.2152V10.2152H19.2107L19.0035 10.9405L19.965 11.2152ZM19.7262 12.0512L20.6856 12.3334L20.6877 12.3259L19.7262 12.0512ZM9.49501 15.037L8.50985 14.8654L8.30576 16.037H9.49501V15.037ZM11.6448 2.69587L11.1233 1.84259L10.7372 2.07852L10.6596 2.52426L11.6448 2.69587ZM22.5925 5.32333L21.6135 5.11936L21.6119 5.12721L22.5925 5.32333ZM22.4333 6.11952L21.4527 5.92341L21.2135 7.11952H22.4333V6.11952ZM22.8314 6.11952V7.11952H23.6733L23.8167 6.28993L22.8314 6.11952ZM23.747 0.824794L24.7324 0.995197L24.9522 -0.27621L23.6662 -0.171935L23.747 0.824794ZM5.43439 1.02384V0.0238442H4.61459L4.45381 0.827729L5.43439 1.02384ZM5.35477 1.42195L4.37419 1.22583L4.13497 2.42195H5.35477V1.42195ZM7.82299 4.64655L8.80783 4.82015L8.80893 4.81366L7.82299 4.64655ZM3.80218 27.4577L4.78607 27.6366L4.787 27.6313L3.80218 27.4577ZM0.219284 30.4832V29.4832H-0.685704L-0.775754 30.3837L0.219284 30.4832ZM0.179474 30.8813L-0.815564 30.7818L-0.925514 31.8813H0.179474V30.8813ZM21.079 29.0158L22.8705 24.9552L21.0406 24.1479L19.2492 28.2085L21.079 29.0158ZM22.2429 23.5937L21.8448 23.4743L21.2701 25.39L21.6682 25.5094L22.2429 23.5937ZM20.636 24.0436C19.9486 25.6738 19.2863 26.8773 18.3225 27.6957C17.3944 28.4838 16.0733 29.0055 13.8741 29.0055V31.0055C16.4123 31.0055 18.2362 30.3927 19.6171 29.2202C20.9623 28.0779 21.773 26.4946 22.4789 24.8207L20.636 24.0436ZM13.8741 29.0055H10.4106V31.0055H13.8741V29.0055ZM10.4106 29.0055C9.53382 29.0055 8.88063 28.9376 8.42782 28.8224C7.94898 28.7006 7.85356 28.5671 7.85884 28.575L6.19474 29.6844C6.59812 30.2895 7.27901 30.5939 7.93475 30.7607C8.61652 30.9341 9.45621 31.0055 10.4106 31.0055V29.0055ZM8.01188 29.3018L10.3209 16.0849L8.35069 15.7407L6.04171 28.9576L8.01188 29.3018ZM9.33577 16.9128H14.9888V14.9128H9.33577V16.9128ZM14.9888 16.9128C16.4427 16.9128 17.0378 17.1604 17.2789 17.3814C17.4597 17.5472 17.627 17.8793 17.5367 18.801L19.5271 18.9961C19.6358 17.8874 19.5244 16.7267 18.6304 15.9071C17.7966 15.1429 16.5207 14.9128 14.9888 14.9128V16.9128ZM17.5364 18.8037L17.4568 19.6397L19.4478 19.8294L19.5274 18.9933L17.5364 18.8037ZM18.4523 20.7345H18.8106V18.7345H18.4523V20.7345ZM19.7911 19.9307L19.8708 19.5326L17.9096 19.1403L17.83 19.5384L19.7911 19.9307ZM19.872 19.5265C19.999 18.87 20.0921 18.1414 20.1719 17.4628C20.2538 16.7674 20.3202 16.1391 20.3969 15.6214L18.4185 15.3283C18.336 15.8855 18.2631 16.571 18.1856 17.2291C18.1062 17.904 18.0202 18.5688 17.9084 19.1464L19.872 19.5265ZM20.391 15.657C20.486 15.1438 20.6302 14.5087 20.7858 13.826C20.939 13.154 21.1023 12.4399 21.2255 11.8033L19.2619 11.4233C19.1463 12.0209 18.9911 12.7001 18.8358 13.3816C18.6829 14.0525 18.5284 14.7311 18.4244 15.2928L20.391 15.657ZM21.2243 11.8094L21.3039 11.4113L19.3428 11.0191L19.2631 11.4172L21.2243 11.8094ZM20.3233 10.2152H19.965V12.2152H20.3233V10.2152ZM19.0035 10.9405L18.7647 11.7765L20.6877 12.3259L20.9266 11.4899L19.0035 10.9405ZM18.7668 11.769C18.4951 12.6929 18.1846 13.1855 17.7555 13.489C17.3071 13.806 16.5594 14.037 15.148 14.037V16.037C16.7224 16.037 17.9652 15.7902 18.9102 15.1219C19.8744 14.4401 20.3601 13.4398 20.6856 12.3334L18.7668 11.769ZM15.148 14.037H9.49501V16.037H15.148V14.037ZM10.4802 15.2086L12.6299 2.86748L10.6596 2.52426L8.50985 14.8654L10.4802 15.2086ZM12.1662 3.54915C12.6241 3.2693 13.4456 3.09871 15.0286 3.09871V1.09871C13.4268 1.09871 12.0985 1.24661 11.1233 1.84259L12.1662 3.54915ZM15.0286 3.09871H18.5717V1.09871H15.0286V3.09871ZM18.5717 3.09871C20.2527 3.09871 21.0355 3.42459 21.3683 3.73061C21.6249 3.96649 21.7741 4.34842 21.6135 5.11937L23.5715 5.52728C23.809 4.38735 23.6995 3.15697 22.7219 2.25827C21.8207 1.42971 20.394 1.09871 18.5717 1.09871V3.09871ZM21.6119 5.12721L21.4527 5.92341L23.4138 6.31564L23.5731 5.51944L21.6119 5.12721ZM22.4333 7.11952H22.8314V5.11952H22.4333V7.11952ZM23.8167 6.28993L24.7324 0.995197L22.7616 0.654391L21.846 5.94912L23.8167 6.28993ZM23.6662 -0.171935C22.2213 -0.0547819 20.3374 0.0238442 18.6115 0.0238442V2.02384C20.3889 2.02384 22.3267 1.94323 23.8278 1.82152L23.6662 -0.171935ZM18.6115 0.0238442H5.43439V2.02384H18.6115V0.0238442ZM4.45381 0.827729L4.37419 1.22583L6.33535 1.61806L6.41497 1.21996L4.45381 0.827729ZM5.35477 2.42195H6.07135V0.421946H5.35477V2.42195ZM6.07135 2.42195C6.69999 2.42195 6.78884 2.58477 6.82226 2.64412C6.9289 2.8335 7.0313 3.33339 6.83706 4.47945L8.80893 4.81366C9.01279 3.61093 9.03556 2.49852 8.56496 1.66279C8.02113 0.697031 7.03512 0.421946 6.07135 0.421946V2.42195ZM6.83818 4.47297L2.81737 27.2841L4.787 27.6313L8.80781 4.82014L6.83818 4.47297ZM2.81831 27.2788C2.63354 28.295 2.36463 28.8213 2.09876 29.0956C1.87071 29.331 1.54536 29.4832 0.935864 29.4832V31.4832C1.91877 31.4832 2.82753 31.2175 3.53501 30.4875C4.20468 29.7964 4.57273 28.8099 4.78605 27.6366L2.81831 27.2788ZM0.935864 29.4832H0.219284V31.4832H0.935864V29.4832ZM-0.775754 30.3837L-0.815564 30.7818L1.17451 30.9809L1.21432 30.5828L-0.775754 30.3837ZM0.179474 31.8813H18.1338V29.8813H0.179474V31.8813ZM18.1338 31.8813C18.4294 31.8813 18.7581 31.8504 19.0882 31.7196C19.4315 31.5835 19.7053 31.3681 19.9349 31.1029C20.3401 30.6348 20.6773 29.9149 21.0771 29.0201L19.2511 28.2042C18.8149 29.1805 18.5948 29.5952 18.4227 29.7939C18.3904 29.8313 18.3702 29.8477 18.3621 29.8538C18.3554 29.8587 18.3531 29.8596 18.3513 29.8602C18.3455 29.8626 18.296 29.8813 18.1338 29.8813V31.8813ZM27.6866 26.1041L26.9478 25.4303L26.9458 25.4325L27.6866 26.1041ZM20.9986 30.4832V29.4832H20.1787L20.018 30.2871L20.9986 30.4832ZM20.9189 30.8813L19.9383 30.6852L19.6991 31.8813H20.9189V30.8813ZM28.4828 30.8813V31.8813H29.3026L29.4634 31.0775L28.4828 30.8813ZM28.5625 30.4832L29.543 30.6794L29.7823 29.4832H28.5625V30.4832ZM28.8013 26.3032L28.0573 25.635L28.0539 25.6388L28.8013 26.3032ZM32.6629 22.0037L33.556 21.554L32.8974 20.246L31.9189 21.3355L32.6629 22.0037ZM35.4894 27.6169L34.5962 28.0667L34.5995 28.0731L34.6028 28.0795L35.4894 27.6169ZM34.1757 30.4832L34.2034 29.4836L34.1895 29.4832H34.1757V30.4832ZM33.4591 30.4832V29.4832H32.6393L32.4785 30.2871L33.4591 30.4832ZM33.3795 30.8813L32.3989 30.6852L32.1597 31.8813H33.3795V30.8813ZM42.2571 30.8813V31.8813H43.0769L43.2377 31.0775L42.2571 30.8813ZM42.3367 30.4832L43.3173 30.6794L43.5565 29.4832H42.3367V30.4832ZM38.7936 27.179L37.9011 27.6301L37.902 27.6319L38.7936 27.179ZM35.0515 19.7744L34.3158 19.097L33.8464 19.6068L34.159 20.2254L35.0515 19.7744ZM38.7538 15.7535L39.4895 16.4309L39.4946 16.4252L38.7538 15.7535ZM45.004 11.3744V12.3744H45.8238L45.9846 11.5706L45.004 11.3744ZM45.0836 10.9763L46.0642 11.1725L46.3034 9.97635H45.0836V10.9763ZM37.5197 10.9763V9.97635H36.6999L36.5391 10.7802L37.5197 10.9763ZM37.4401 11.3744L36.4595 11.1783L36.2203 12.3744H37.4401V11.3744ZM37.6789 15.5545L36.9461 14.874L36.9418 14.8788L37.6789 15.5545ZM34.6136 18.8985L33.7206 19.3487L34.3724 20.6415L35.3507 19.5743L34.6136 18.8985ZM32.1852 14.0815L31.2907 14.5287L31.2922 14.5317L32.1852 14.0815ZM33.8572 11.3744V12.3744H34.677L34.8378 11.5706L33.8572 11.3744ZM33.9368 10.9763L34.9174 11.1725L35.1566 9.97635H33.9368V10.9763ZM24.9795 10.9763V9.97635H24.1597L23.999 10.7802L24.9795 10.9763ZM24.8999 11.3744L23.9193 11.1783L23.6801 12.3744H24.8999V11.3744ZM28.8809 14.5194L27.9836 14.961L27.9887 14.9709L28.8809 14.5194ZM32.225 21.1279L32.9638 21.8017L33.4287 21.292L33.1172 20.6764L32.225 21.1279ZM26.9458 25.4325C25.6082 26.9078 24.5222 27.9379 23.5879 28.5956C22.6585 29.2498 21.9527 29.4832 21.3568 29.4832V31.4832C22.5127 31.4832 23.6182 31.0201 24.739 30.2311C25.8549 29.4457 27.058 28.2863 28.4275 26.7758L26.9458 25.4325ZM21.3568 29.4832H20.9986V31.4832H21.3568V29.4832ZM20.018 30.2871L19.9383 30.6852L21.8995 31.0775L21.9791 30.6794L20.018 30.2871ZM20.9189 31.8813H21.2772V29.8813H20.9189V31.8813ZM21.2772 31.8813C21.8027 31.8813 22.4932 31.8275 23.1123 31.7787C23.7642 31.7274 24.3323 31.6823 24.7009 31.6823V29.6823C24.2335 29.6823 23.5675 29.7367 22.9553 29.7849C22.3105 29.8357 21.7072 29.8813 21.2772 29.8813V31.8813ZM24.7009 31.6823C25.1011 31.6823 25.5565 31.7261 26.094 31.7773C26.61 31.8265 27.1938 31.8813 27.7663 31.8813V29.8813C27.3036 29.8813 26.8125 29.8367 26.2836 29.7863C25.776 29.738 25.2163 29.6823 24.7009 29.6823V31.6823ZM27.7663 31.8813H28.4828V29.8813H27.7663V31.8813ZM29.4634 31.0775L29.543 30.6794L27.5819 30.2871L27.5022 30.6852L29.4634 31.0775ZM28.5625 29.4832H27.8459V31.4832H28.5625V29.4832ZM27.8459 29.4832C27.4983 29.4832 27.4907 29.4076 27.5775 29.4844C27.7405 29.6287 27.6827 29.7876 27.7076 29.6601C27.7384 29.5025 27.8583 29.1965 28.1744 28.7113C28.4807 28.241 28.9312 27.6622 29.5487 26.9676L28.0539 25.6388C27.3975 26.3773 26.8777 27.0376 26.4985 27.6198C26.129 28.1871 25.8483 28.747 25.7448 29.2761C25.6354 29.8353 25.7094 30.5018 26.2519 30.982C26.7181 31.3947 27.3376 31.4832 27.8459 31.4832V29.4832ZM29.5453 26.9714L33.4069 22.6719L31.9189 21.3355L28.0573 25.635L29.5453 26.9714ZM31.7697 22.4535L34.5962 28.0667L36.3825 27.1672L33.556 21.554L31.7697 22.4535ZM34.6028 28.0795C35.005 28.8504 34.8923 29.1961 34.8504 29.2729C34.8207 29.3273 34.6858 29.497 34.2034 29.4836L34.1479 31.4829C35.0986 31.5093 36.0984 31.1615 36.6061 30.2306C37.1017 29.3221 36.9292 28.2148 36.376 27.1544L34.6028 28.0795ZM34.1757 29.4832H33.4591V31.4832H34.1757V29.4832ZM32.4785 30.2871L32.3989 30.6852L34.36 31.0775L34.4397 30.6794L32.4785 30.2871ZM33.3795 31.8813H34.096V29.8813H33.3795V31.8813ZM34.096 31.8813C34.6556 31.8813 35.5327 31.8506 36.3611 31.821C37.2083 31.7907 38.0003 31.7619 38.4353 31.7619V29.7619C37.9547 29.7619 37.1145 29.7928 36.2897 29.8223C35.446 29.8524 34.6113 29.8813 34.096 29.8813V31.8813ZM38.4353 31.7619C38.8055 31.7619 39.4331 31.7902 40.1283 31.8207C40.8029 31.8502 41.5338 31.8813 42.058 31.8813V29.8813C41.587 29.8813 40.9047 29.8528 40.2158 29.8226C39.5475 29.7933 38.8614 29.7619 38.4353 29.7619V31.7619ZM42.058 31.8813H42.2571V29.8813H42.058V31.8813ZM43.2377 31.0775L43.3173 30.6794L41.3561 30.2871L41.2765 30.6852L43.2377 31.0775ZM42.3367 29.4832H42.0979V31.4832H42.3367V29.4832ZM42.0979 29.4832C41.7805 29.4832 41.5903 29.4431 41.46 29.391C41.3387 29.3426 41.2156 29.2626 41.0649 29.0975C40.7105 28.7091 40.3485 28.032 39.6852 26.7262L37.902 27.6319C38.5127 28.8341 39.0066 29.809 39.5877 30.4457C39.9048 30.7932 40.2694 31.0691 40.7179 31.2483C41.1573 31.4239 41.619 31.4832 42.0979 31.4832V29.4832ZM39.6861 26.728L35.944 19.3233L34.159 20.2254L37.9011 27.6301L39.6861 26.728ZM35.7871 20.4517L39.4895 16.4309L38.0182 15.0762L34.3158 19.097L35.7871 20.4517ZM39.4946 16.4252C40.8579 14.9216 41.8381 13.8909 42.677 13.2298C43.4926 12.587 44.0754 12.3744 44.6457 12.3744V10.3744C43.4643 10.3744 42.4547 10.8585 41.4391 11.6589C40.4467 12.4409 39.3568 13.5997 38.013 15.0819L39.4946 16.4252ZM44.6457 12.3744H45.004V10.3744H44.6457V12.3744ZM45.9846 11.5706L46.0642 11.1725L44.103 10.7802L44.0234 11.1783L45.9846 11.5706ZM45.0836 9.97635H44.7253V11.9763H45.0836V9.97635ZM44.7253 9.97635C44.1964 9.97635 43.5538 10.0307 42.9831 10.0795C42.3815 10.1309 41.8656 10.1754 41.5007 10.1754V12.1754C41.9718 12.1754 42.5905 12.1203 43.1534 12.0722C43.7471 12.0215 44.2987 11.9763 44.7253 11.9763V9.97635ZM41.5007 10.1754C41.0962 10.1754 40.5886 10.1308 39.9999 10.0796C39.4364 10.0306 38.805 9.97635 38.2363 9.97635V11.9763C38.7027 11.9763 39.2456 12.0216 39.8266 12.0721C40.3825 12.1205 40.9896 12.1754 41.5007 12.1754V10.1754ZM38.2363 9.97635H37.5197V11.9763H38.2363V9.97635ZM36.5391 10.7802L36.4595 11.1783L38.4207 11.5706L38.5003 11.1725L36.5391 10.7802ZM37.4401 12.3744H38.1567V10.3744H37.4401V12.3744ZM38.1567 12.3744C38.4722 12.3744 38.577 12.4423 38.5769 12.4422C38.5269 12.4056 38.5311 12.3461 38.5302 12.4052C38.5286 12.5154 38.4762 12.7792 38.2186 13.228C37.9681 13.6645 37.5601 14.2129 36.9461 14.874L38.4117 16.2349C39.0916 15.5028 39.6042 14.8319 39.9533 14.2234C40.2954 13.6272 40.5216 13.0202 40.53 12.4337C40.5391 11.7962 40.2845 11.2141 39.7593 10.8292C39.2839 10.4808 38.697 10.3744 38.1567 10.3744V12.3744ZM36.9418 14.8788L33.8764 18.2228L35.3507 19.5743L38.4161 16.2302L36.9418 14.8788ZM35.5065 18.4484L33.0781 13.6314L31.2922 14.5317L33.7206 19.3487L35.5065 18.4484ZM33.0796 13.6343C32.876 13.2271 32.7712 12.9183 32.7286 12.6971C32.6856 12.4733 32.7168 12.3966 32.7141 12.4037C32.7015 12.436 32.6721 12.4505 32.6943 12.4397C32.7405 12.4173 32.8722 12.3744 33.1406 12.3744V10.3744C32.2764 10.3744 31.2509 10.6482 30.8501 11.6788C30.5102 12.5527 30.8152 13.5776 31.2907 14.5287L33.0796 13.6343ZM33.1406 12.3744H33.8572V10.3744H33.1406V12.3744ZM34.8378 11.5706L34.9174 11.1725L32.9562 10.7802L32.8766 11.1783L34.8378 11.5706ZM33.9368 9.97635H33.2202V11.9763H33.9368V9.97635ZM33.2202 9.97635C32.642 9.97635 31.8382 10.0291 31.108 10.0781C30.3464 10.1292 29.6742 10.1754 29.279 10.1754V12.1754C29.7597 12.1754 30.5206 12.122 31.2419 12.0736C31.9947 12.0231 32.7236 11.9763 33.2202 11.9763V9.97635ZM29.279 10.1754C28.907 10.1754 28.2871 10.1297 27.5798 10.0785C26.9055 10.0296 26.1583 9.97635 25.6165 9.97635V11.9763C26.07 11.9763 26.736 12.0226 27.4352 12.0733C28.1013 12.1215 28.8151 12.1754 29.279 12.1754V10.1754ZM25.6165 9.97635H24.9795V11.9763H25.6165V9.97635ZM23.999 10.7802L23.9193 11.1783L25.8805 11.5706L25.9601 11.1725L23.999 10.7802ZM24.8999 12.3744H25.2184V10.3744H24.8999V12.3744ZM25.2184 12.3744C25.8569 12.3744 26.2101 12.4941 26.5405 12.7719C26.9336 13.1023 27.376 13.7261 27.9837 14.9609L29.7782 14.0779C29.1517 12.8048 28.5591 11.856 27.8275 11.241C27.0334 10.5733 26.1723 10.3744 25.2184 10.3744V12.3744ZM27.9887 14.9709L31.3327 21.5794L33.1172 20.6764L29.7732 14.0679L27.9887 14.9709ZM31.4861 20.454L26.9478 25.4303L28.4255 26.778L32.9638 21.8017L31.4861 20.454ZM51.4974 10.5782V9.57825H51.1995L50.9501 9.74128L51.4974 10.5782ZM45.7249 11.9716V10.9716H44.9051L44.7443 11.7755L45.7249 11.9716ZM45.6453 12.3697L44.6647 12.1736L44.4255 13.3697H45.6453V12.3697ZM47.7552 15.5943L48.74 15.7684L48.7412 15.7614L47.7552 15.5943ZM43.9335 37.2111L42.9487 37.037L42.9475 37.044L43.9335 37.2111ZM40.3506 40.4357V39.4357H39.5308L39.37 40.2396L40.3506 40.4357ZM40.2709 40.8338L39.2904 40.6377L39.0511 41.8338H40.2709V40.8338ZM49.5069 40.8338V41.8338H50.3267L50.4874 41.03L49.5069 40.8338ZM49.5865 40.4357L50.5671 40.6319L50.8063 39.4357H49.5865V40.4357ZM47.1581 37.2111L46.1732 37.0377L46.1721 37.044L47.1581 37.2111ZM48.3922 30.2046L48.8808 29.3321L47.6517 28.6438L47.4073 30.0311L48.3922 30.2046ZM51.2983 13.8029L50.3129 13.6325L49.8755 16.1634L51.9091 14.5946L51.2983 13.8029ZM51.8557 10.5782L52.841 10.7486L53.0433 9.57825H51.8557V10.5782ZM48.7107 28.2937L47.7263 28.1178L47.6542 28.5212L47.8859 28.8592L48.7107 28.2937ZM51.1789 14.4796L50.5761 13.6818L50.2634 13.918L50.1945 14.3037L51.1789 14.4796ZM50.9501 9.74128C49.1358 10.9276 47.5154 10.9716 46.0832 10.9716V12.9716C47.597 12.9716 49.7187 12.936 52.0446 11.4152L50.9501 9.74128ZM46.0832 10.9716H45.7249V12.9716H46.0832V10.9716ZM44.7443 11.7755L44.6647 12.1736L46.6259 12.5658L46.7055 12.1677L44.7443 11.7755ZM45.6453 13.3697H46.0036V11.3697H45.6453V13.3697ZM46.0036 13.3697C46.6322 13.3697 46.7211 13.5325 46.7545 13.5919C46.8611 13.7812 46.9635 14.2811 46.7693 15.4272L48.7412 15.7614C48.945 14.5587 48.9678 13.4463 48.4972 12.6105C47.9534 11.6448 46.9673 11.3697 46.0036 11.3697V13.3697ZM46.7705 15.4202L42.9487 37.037L44.9182 37.3852L48.74 15.7684L46.7705 15.4202ZM42.9475 37.044C42.7602 38.1492 42.485 38.7283 42.2095 39.0301C41.9792 39.2825 41.6624 39.4357 41.0671 39.4357V41.4357C42.0643 41.4357 42.9816 41.1511 43.6868 40.3783C44.3469 39.655 44.7086 38.6218 44.9194 37.3782L42.9475 37.044ZM41.0671 39.4357H40.3506V41.4357H41.0671V39.4357ZM39.37 40.2396L39.2904 40.6377L41.2515 41.03L41.3311 40.6319L39.37 40.2396ZM40.2709 41.8338H40.9875V39.8338H40.2709V41.8338ZM40.9875 41.8338C41.6661 41.8338 42.4283 41.7811 43.1189 41.7318C43.8321 41.6808 44.4557 41.6348 44.9287 41.6348V39.6348C44.3667 39.6348 43.6566 39.6883 42.9764 39.7369C42.2738 39.7871 41.5828 39.8338 40.9875 39.8338V41.8338ZM44.9287 41.6348C45.4006 41.6348 46.0035 41.6807 46.6966 41.7316C47.368 41.781 48.1107 41.8338 48.7903 41.8338V39.8338C48.1959 39.8338 47.5254 39.7872 46.8433 39.737C46.1828 39.6884 45.4919 39.6348 44.9287 39.6348V41.6348ZM48.7903 41.8338H49.5069V39.8338H48.7903V41.8338ZM50.4874 41.03L50.5671 40.6319L48.6059 40.2396L48.5263 40.6377L50.4874 41.03ZM49.5865 39.4357H48.8699V41.4357H49.5865V39.4357ZM48.8699 39.4357C48.271 39.4357 48.1902 39.2792 48.1574 39.22C48.0509 39.0275 47.95 38.5228 48.144 37.3782L46.1721 37.044C45.968 38.2483 45.9468 39.3558 46.4075 40.1884C46.9421 41.1544 47.9162 41.4357 48.8699 41.4357V39.4357ZM48.1429 37.3846L49.377 30.378L47.4073 30.0311L46.1732 37.0377L48.1429 37.3846ZM47.9036 31.0771C48.9977 31.6898 50.3609 32.2794 52.4528 32.2794V30.2794C50.8025 30.2794 49.7771 29.834 48.8808 29.3321L47.9036 31.0771ZM52.4528 32.2794C55.7164 32.2794 58.7149 30.485 60.8647 27.8628C63.0197 25.2342 64.4006 21.6883 64.4006 17.9829H62.4006C62.4006 21.2045 61.1938 24.3068 59.318 26.5948C57.437 28.8891 54.9616 30.2794 52.4528 30.2794V32.2794ZM64.4006 17.9829C64.4006 15.3356 63.7333 13.2342 62.5229 11.7758C61.2985 10.3006 59.5944 9.57825 57.7475 9.57825V11.5782C59.0457 11.5782 60.1681 12.0701 60.9839 13.0531C61.8138 14.053 62.4006 15.654 62.4006 17.9829H64.4006ZM57.7475 9.57825C55.0766 9.57825 53.4085 10.9121 50.6875 13.0111L51.9091 14.5946C54.7616 12.3942 55.8801 11.5782 57.7475 11.5782V9.57825ZM52.2837 13.9732L52.841 10.7486L50.8703 10.4079L50.3129 13.6325L52.2837 13.9732ZM51.8557 9.57825H51.4974V11.5782H51.8557V9.57825ZM55.9163 13.4891C56.9616 13.4891 57.6884 13.8678 58.1931 14.5736C58.7345 15.3309 59.0963 16.5752 59.0963 18.4208H61.0963C61.0963 16.365 60.7017 14.6435 59.82 13.4103C58.9014 12.1256 57.5382 11.4891 55.9163 11.4891V13.4891ZM59.0963 18.4208C59.0963 21.2199 58.3222 24.0585 57.0798 26.1691C55.816 28.3163 54.2207 29.4832 52.6519 29.4832V31.4832C55.2631 31.4832 57.39 29.5849 58.8034 27.1837C60.2382 24.7461 61.0963 21.5534 61.0963 18.4208H59.0963ZM52.6519 29.4832C51.3561 29.4832 50.3323 28.8903 49.5354 27.7282L47.8859 28.8592C48.9999 30.4838 50.6036 31.4832 52.6519 31.4832V29.4832ZM49.6951 28.4696L52.1633 14.6555L50.1945 14.3037L47.7263 28.1178L49.6951 28.4696ZM51.7817 15.2775C53.4986 13.9803 54.719 13.4891 55.9163 13.4891V11.4891C54.088 11.4891 52.4421 12.2719 50.5761 13.6818L51.7817 15.2775ZM74.3471 0.625745V-0.374255H74.0443L73.7924 -0.206306L74.3471 0.625745ZM68.5746 2.0191V1.0191H67.7548L67.594 1.82298L68.5746 2.0191ZM68.495 2.4172L67.5144 2.22108L67.2752 3.4172H68.495V2.4172ZM70.6049 5.64181L71.5897 5.81591L71.5909 5.80892L70.6049 5.64181ZM66.7832 27.2586L65.7984 27.0845L65.7972 27.0915L66.7832 27.2586ZM63.2003 30.4832V29.4832H62.3805L62.2197 30.2871L63.2003 30.4832ZM63.1206 30.8813L62.1401 30.6852L61.9008 31.8813H63.1206V30.8813ZM72.3566 30.8813V31.8813H73.1764L73.3371 31.0775L72.3566 30.8813ZM72.4362 30.4832L73.4168 30.6794L73.656 29.4832H72.4362V30.4832ZM70.0078 27.2586L69.0229 27.0849L69.0218 27.0915L70.0078 27.2586ZM74.7054 0.625745L75.6901 0.799446L75.8972 -0.374255H74.7054V0.625745ZM73.7924 -0.206306C72.0243 0.972402 70.334 1.0191 68.9329 1.0191V3.0191C70.3981 3.0191 72.6092 2.98617 74.9018 1.45779L73.7924 -0.206306ZM68.9329 1.0191H68.5746V3.0191H68.9329V1.0191ZM67.594 1.82298L67.5144 2.22108L69.4756 2.61331L69.5552 2.21521L67.594 1.82298ZM68.495 3.4172H68.8533V1.4172H68.495V3.4172ZM68.8533 3.4172C69.4819 3.4172 69.5708 3.58002 69.6042 3.63937C69.7108 3.82875 69.8132 4.32864 69.619 5.4747L71.5909 5.80892C71.7947 4.60618 71.8175 3.49377 71.3469 2.65804C70.8031 1.69228 69.817 1.4172 68.8533 1.4172V3.4172ZM69.6202 5.46771L65.7984 27.0845L67.7679 27.4327L71.5897 5.8159L69.6202 5.46771ZM65.7972 27.0915C65.6099 28.1967 65.3347 28.7758 65.0592 29.0776C64.8289 29.33 64.5121 29.4832 63.9168 29.4832V31.4832C64.914 31.4832 65.8312 31.1986 66.5365 30.4258C67.1966 29.7025 67.5583 28.6693 67.7691 27.4257L65.7972 27.0915ZM63.9168 29.4832H63.2003V31.4832H63.9168V29.4832ZM62.2197 30.2871L62.1401 30.6852L64.1012 31.0775L64.1808 30.6794L62.2197 30.2871ZM63.1206 31.8813H63.8372V29.8813H63.1206V31.8813ZM63.8372 31.8813C64.5158 31.8813 65.278 31.8286 65.9686 31.7793C66.6818 31.7283 67.3054 31.6823 67.7784 31.6823V29.6823C67.2164 29.6823 66.5063 29.7358 65.8261 29.7844C65.1234 29.8346 64.4325 29.8813 63.8372 29.8813V31.8813ZM67.7784 31.6823C68.2503 31.6823 68.8532 31.7282 69.5463 31.7791C70.2177 31.8285 70.9604 31.8813 71.64 31.8813V29.8813C71.0456 29.8813 70.3751 29.8347 69.693 29.7845C69.0325 29.736 68.3416 29.6823 67.7784 29.6823V31.6823ZM71.64 31.8813H72.3566V29.8813H71.64V31.8813ZM73.3371 31.0775L73.4168 30.6794L71.4556 30.2871L71.376 30.6852L73.3371 31.0775ZM72.4362 29.4832H71.7196V31.4832H72.4362V29.4832ZM71.7196 29.4832C71.1207 29.4832 71.0399 29.3267 71.0071 29.2675C70.9006 29.075 70.7997 28.5703 70.9937 27.4257L69.0218 27.0915C68.8177 28.2958 68.7965 29.4033 69.2572 30.2359C69.7918 31.2019 70.7659 31.4832 71.7196 31.4832V29.4832ZM70.9926 27.4323L75.6901 0.799446L73.7206 0.452043L69.023 27.0849L70.9926 27.4323ZM74.7054 -0.374255H74.3471V1.62574H74.7054V-0.374255ZM83.4374 32.2794C90.9284 32.2794 95.2657 25.3839 95.2657 18.5004H93.2657C93.2657 24.7543 89.4023 30.2794 83.4374 30.2794V32.2794ZM95.2657 18.5004C95.2657 13.6849 91.9452 9.57825 86.5824 9.57825V11.5782C90.6944 11.5782 93.2657 14.6374 93.2657 18.5004H95.2657ZM86.5824 9.57825C79.0915 9.57825 74.7541 16.4738 74.7541 23.3573H76.7541C76.7541 17.1034 80.6176 11.5782 86.5824 11.5782V9.57825ZM74.7541 23.3573C74.7541 28.1728 78.0747 32.2794 83.4374 32.2794V30.2794C79.3254 30.2794 76.7541 27.2203 76.7541 23.3573H74.7541ZM83.4772 29.4832C82.2321 29.4832 81.5034 29.0465 81.0318 28.334C80.5103 27.5461 80.2176 26.2887 80.2176 24.5117H78.2176C78.2176 26.4372 78.522 28.1655 79.364 29.4378C80.2559 30.7854 81.657 31.4832 83.4772 31.4832V29.4832ZM80.2176 24.5117C80.2176 21.7571 80.7026 18.6246 81.7907 16.2206C82.8832 13.8067 84.4476 12.3744 86.5426 12.3744V10.3744C83.303 10.3744 81.2049 12.6644 79.9686 15.3959C78.7278 18.1374 78.2176 21.5736 78.2176 24.5117H80.2176ZM86.5426 12.3744C87.7877 12.3744 88.5165 12.8112 88.9881 13.5237C89.5095 14.3116 89.8023 15.569 89.8023 17.3459H91.8023C91.8023 15.4205 91.4979 13.6922 90.6559 12.4199C89.7639 11.0723 88.3629 10.3744 86.5426 10.3744V12.3744ZM89.8023 17.3459C89.8023 20.1006 89.3172 23.2331 88.2292 25.6371C87.1366 28.051 85.5722 29.4832 83.4772 29.4832V31.4832C86.7168 31.4832 88.8149 29.1933 90.0512 26.4618C91.2921 23.7203 91.8023 20.2841 91.8023 17.3459H89.8023ZM103.781 10.5782V9.57825H103.478L103.226 9.74619L103.781 10.5782ZM98.0085 11.9716V10.9716H97.1887L97.0279 11.7755L98.0085 11.9716ZM97.9289 12.3697L96.9483 12.1736L96.7091 13.3697H97.9289V12.3697ZM100.039 15.5943L101.023 15.7691L101.025 15.7614L100.039 15.5943ZM97.9687 27.2586L96.9841 27.0839L96.9828 27.0915L97.9687 27.2586ZM94.3858 30.4832V29.4832H93.566L93.4052 30.2871L94.3858 30.4832ZM94.3062 30.8813L93.3256 30.6852L93.0864 31.8813H94.3062V30.8813ZM103.542 30.8813V31.8813H104.362L104.523 31.0775L103.542 30.8813ZM103.622 30.4832L104.602 30.6794L104.842 29.4832H103.622V30.4832ZM101.193 27.2586L100.208 27.0859L100.207 27.0915L101.193 27.2586ZM103.462 14.3204L102.881 13.5067L102.548 13.7445L102.478 14.1476L103.462 14.3204ZM103.582 13.6436L102.598 13.4647L102.085 16.287L104.241 14.3954L103.582 13.6436ZM104.139 10.5782L105.123 10.7571L105.337 9.57825H104.139V10.5782ZM103.226 9.74619C101.458 10.9249 99.7679 10.9716 98.3668 10.9716V12.9716C99.832 12.9716 102.043 12.9387 104.336 11.4103L103.226 9.74619ZM98.3668 10.9716H98.0085V12.9716H98.3668V10.9716ZM97.0279 11.7755L96.9483 12.1736L98.9095 12.5658L98.9891 12.1677L97.0279 11.7755ZM97.9289 13.3697H98.2872V11.3697H97.9289V13.3697ZM98.2872 13.3697C98.9158 13.3697 99.0047 13.5325 99.0381 13.5919C99.1447 13.7812 99.2471 14.2811 99.0529 15.4272L101.025 15.7614C101.229 14.5587 101.251 13.4463 100.781 12.6105C100.237 11.6448 99.2509 11.3697 98.2872 11.3697V13.3697ZM99.0542 15.4196L96.9841 27.0839L98.9533 27.4334L101.023 15.7691L99.0542 15.4196ZM96.9828 27.0915C96.7954 28.1967 96.5202 28.7758 96.2448 29.0776C96.0145 29.33 95.6977 29.4832 95.1024 29.4832V31.4832C96.0995 31.4832 97.0168 31.1986 97.722 30.4258C98.3821 29.7025 98.7439 28.6693 98.9546 27.4257L96.9828 27.0915ZM95.1024 29.4832H94.3858V31.4832H95.1024V29.4832ZM93.4052 30.2871L93.3256 30.6852L95.2868 31.0775L95.3664 30.6794L93.4052 30.2871ZM94.3062 31.8813H95.0228V29.8813H94.3062V31.8813ZM95.0228 31.8813C95.7014 31.8813 96.4635 31.8286 97.1542 31.7793C97.8673 31.7283 98.4909 31.6823 98.964 31.6823V29.6823C98.4019 29.6823 97.6919 29.7358 97.0117 29.7844C96.309 29.8346 95.6181 29.8813 95.0228 29.8813V31.8813ZM98.964 31.6823C99.4558 31.6823 100.06 31.7282 100.746 31.7791C101.412 31.8284 102.146 31.8813 102.826 31.8813V29.8813C102.232 29.8813 101.571 29.8347 100.894 29.7846C100.237 29.7359 99.547 29.6823 98.964 29.6823V31.6823ZM102.826 31.8813H103.542V29.8813H102.826V31.8813ZM104.523 31.0775L104.602 30.6794L102.641 30.2871L102.562 30.6852L104.523 31.0775ZM103.622 29.4832H102.905V31.4832H103.622V29.4832ZM102.905 29.4832C102.306 29.4832 102.225 29.3267 102.193 29.2675C102.086 29.075 101.985 28.5703 102.179 27.4257L100.207 27.0915C100.003 28.2958 99.982 29.4033 100.443 30.2359C100.977 31.2019 101.951 31.4832 102.905 31.4832V29.4832ZM102.178 27.4314L104.447 14.4931L102.478 14.1476L100.208 27.0859L102.178 27.4314ZM104.044 15.1341C105.751 13.915 106.456 13.6086 107.045 13.6086V11.6086C105.724 11.6086 104.518 12.3372 102.881 13.5067L104.044 15.1341ZM107.045 13.6086C107.451 13.6086 107.643 13.7544 107.99 14.0964C108.311 14.4134 108.952 15.1611 110.071 15.1611V13.1611C109.916 13.1611 109.86 13.1326 109.395 12.6733C108.955 12.239 108.272 11.6086 107.045 11.6086V13.6086ZM110.071 15.1611C110.962 15.1611 111.68 14.8172 112.158 14.244C112.611 13.7004 112.783 13.0307 112.783 12.4493H110.783C110.783 12.6642 110.716 12.8503 110.621 12.9636C110.552 13.0473 110.414 13.1611 110.071 13.1611V15.1611ZM112.783 12.4493C112.783 11.4912 112.257 10.7406 111.564 10.269C110.884 9.80624 110.011 9.57825 109.116 9.57825V11.5782C109.693 11.5782 110.154 11.7284 110.439 11.9225C110.711 12.1078 110.783 12.2928 110.783 12.4493H112.783ZM109.116 9.57825C107.059 9.57825 105.161 10.9281 102.922 12.8919L104.241 14.3954C106.541 12.3782 107.908 11.5782 109.116 11.5782V9.57825ZM104.566 13.8225L105.123 10.7571L103.155 10.3994L102.598 13.4647L104.566 13.8225ZM104.139 9.57825H103.781V11.5782H104.139V9.57825ZM126.187 26.5022L126.85 27.2512L127.646 26.5469L126.895 25.7951L126.187 26.5022ZM125.869 26.1838L126.576 25.4767L125.907 24.808L125.203 25.4382L125.869 26.1838ZM114.244 20.0132L114.14 19.0187L113.376 19.0988L113.257 19.8573L114.244 20.0132ZM114.364 19.3763L113.389 19.1534L113.081 20.4999L114.457 20.372L114.364 19.3763ZM122.047 9.57825C119.046 9.57825 115.99 11.2203 113.712 13.6985C111.422 16.1905 109.821 19.6294 109.821 23.3971H111.821C111.821 20.198 113.185 17.2275 115.185 15.0518C117.197 12.8623 119.754 11.5782 122.047 11.5782V9.57825ZM109.821 23.3971C109.821 25.8714 110.411 28.0707 111.599 29.6789C112.809 31.3174 114.597 32.2794 116.792 32.2794V30.2794C115.245 30.2794 114.048 29.6292 113.208 28.4909C112.345 27.3224 111.821 25.5805 111.821 23.3971H109.821ZM116.792 32.2794C120.708 32.2794 123.75 29.994 126.85 27.2512L125.525 25.7533C122.415 28.5043 119.883 30.2794 116.792 30.2794V32.2794ZM126.895 25.7951L126.576 25.4767L125.162 26.8909L125.48 27.2094L126.895 25.7951ZM125.203 25.4382C122.666 27.7057 121.263 28.2491 119.539 28.2491V30.2491C121.956 30.2491 123.817 29.3595 126.535 26.9293L125.203 25.4382ZM119.539 28.2491C118.089 28.2491 117.014 27.6796 116.274 26.7077C115.51 25.704 115.045 24.1885 115.045 22.2426H113.045C113.045 24.4767 113.576 26.4645 114.683 27.919C115.814 29.4055 117.487 30.2491 119.539 30.2491V28.2491ZM115.045 22.2426C115.045 21.5576 115.117 20.8973 115.232 20.1692L113.257 19.8573C113.133 20.6419 113.045 21.4147 113.045 22.2426H115.045ZM114.349 21.0078C117.954 20.6293 121.294 20.1023 123.751 19.1091C126.211 18.1145 128.103 16.503 128.103 13.8427H126.103C126.103 15.2828 125.169 16.3784 123.001 17.2549C120.83 18.1327 117.741 18.6407 114.14 19.0187L114.349 21.0078ZM128.103 13.8427C128.103 12.5313 127.543 11.3984 126.421 10.6365C125.352 9.91124 123.859 9.57825 122.047 9.57825V11.5782C123.659 11.5782 124.694 11.8822 125.298 12.2915C125.847 12.6643 126.103 13.1636 126.103 13.8427H128.103ZM121.569 12.4143C122.214 12.4143 122.568 12.5855 122.755 12.7588C122.932 12.9234 123.078 13.2011 123.078 13.6834H125.078C125.078 12.7724 124.785 11.9155 124.116 11.2938C123.457 10.6809 122.558 10.4143 121.569 10.4143V12.4143ZM123.078 13.6834C123.078 14.3596 122.933 14.9079 122.661 15.3704C122.387 15.8355 121.95 16.2722 121.279 16.6695C119.904 17.4834 117.659 18.0655 114.271 18.3806L114.457 20.372C117.916 20.0501 120.528 19.4378 122.298 18.3907C123.199 17.8574 123.907 17.1968 124.385 16.3843C124.864 15.5691 125.078 14.6594 125.078 13.6834H123.078ZM115.339 19.5991C115.785 17.6478 116.684 15.8102 117.829 14.4802C118.982 13.1414 120.291 12.4143 121.569 12.4143V10.4143C119.504 10.4143 117.688 11.5781 116.313 13.1753C114.93 14.7813 113.898 16.9246 113.389 19.1534L115.339 19.5991Z" fill="#FF0072" fill-opacity="0.5"/>
</svg>
