<svg width="110" height="34" viewBox="0 0 110 34" fill="none" xmlns="http://www.w3.org/2000/svg">
<path fill-rule="evenodd" clip-rule="evenodd" d="M24.5457 10.5999L24.668 9.49032C24.9225 7.18224 24.339 5.83127 23.3932 5.019C22.3903 4.15771 20.7682 3.71276 18.5758 3.71276C14.3206 3.71276 11.4007 5.83146 9.50002 8.85783C7.5744 11.9239 6.71719 15.9065 6.71719 19.433C6.71719 22.9474 7.41615 25.7181 8.73762 27.5832C10.0222 29.3962 11.9647 30.4556 14.7541 30.4556C17.5802 30.4556 21.1579 28.6974 23.4442 23.8623L23.8119 23.0848L26.115 23.7758L22.6976 31.5869L22.2759 31.7275C22.2105 31.7493 22.1417 31.7723 22.0695 31.7965C20.4715 32.3313 17.2456 33.411 14.356 33.411C10.1758 33.411 6.77161 31.7808 4.42502 29.0811C2.09117 26.3961 0.855621 22.7166 0.855621 18.6766C0.855621 9.03019 7.57292 0.757324 18.6554 0.757324C21.737 0.757324 23.6389 1.30935 25.4832 1.84468C25.6882 1.90416 25.8924 1.96344 26.0974 2.02172L26.5972 1.15542H28.8457L28.4996 2.57642C27.7778 5.53875 27.4768 6.77427 27.133 9.71599L27.0296 10.5999H24.5457ZM26.3095 3.11894C25.92 3.01331 25.544 2.90438 25.171 2.79631C23.7796 2.39323 22.4292 2.00204 20.5728 1.838C19.9893 1.78644 19.3559 1.75732 18.6554 1.75732C18.6289 1.75732 18.6023 1.75737 18.5758 1.75747C17.8245 1.7603 17.0947 1.80318 16.3871 1.88374C7.27813 2.92076 1.85562 10.2019 1.85562 18.6766C1.85562 26.0389 6.16889 31.9026 13.3944 32.3797C13.7094 32.4005 14.03 32.411 14.356 32.411C14.4879 32.411 14.6206 32.4086 14.7541 32.4039C15.6238 32.3734 16.5215 32.2471 17.3888 32.0733C19.1325 31.7238 20.7535 31.1819 21.778 30.8395C21.8408 30.8185 21.9014 30.7982 21.9597 30.7788L24.7464 24.4092L24.3483 24.2898C23.7331 25.5907 23.0235 26.6923 22.2536 27.6122C20.6992 29.4694 18.8993 30.5855 17.1362 31.1045C16.3252 31.3432 15.522 31.4556 14.7541 31.4556C14.6198 31.4556 14.4871 31.4533 14.356 31.4488C14.0565 31.4386 13.7651 31.4166 13.4819 31.3833C8.18856 30.7603 5.71719 26.1607 5.71719 19.433C5.71719 12.6732 8.73456 4.15043 16.5214 2.87533C17.1725 2.76871 17.857 2.71276 18.5758 2.71276C18.6024 2.71276 18.629 2.71283 18.6554 2.71295C19.2841 2.71589 19.8837 2.75378 20.4489 2.83026C23.0664 3.18451 24.9438 4.36671 25.532 6.73941C25.6693 7.29318 25.7364 7.91181 25.7263 8.5999C25.7219 8.90138 25.7026 9.21621 25.668 9.54475C25.666 9.56309 25.664 9.58147 25.662 9.5999H26.1397C26.2742 8.44904 26.4031 7.55069 26.5517 6.71315C26.6917 5.9239 26.8492 5.18866 27.0453 4.34697C27.1034 4.0977 27.1648 3.83909 27.2302 3.56698C27.2624 3.43322 27.2955 3.2962 27.3296 3.15542C27.3909 2.90232 27.4555 2.63707 27.5238 2.35679C27.5249 2.3523 27.526 2.34781 27.5271 2.34331L27.5729 2.15542H27.1748L26.5776 3.19048C26.4875 3.16684 26.3982 3.14298 26.3095 3.11894ZM33.9828 10.7098H35.842L35.552 12.3048C36.9369 11.3151 38.2429 10.7098 39.6201 10.7098C40.5153 10.7098 41.3885 10.9378 42.0686 11.4006C42.7617 11.8722 43.2873 12.6228 43.2873 13.5809C43.2873 14.1623 43.1154 14.832 42.6624 15.3756C42.1848 15.9488 41.4668 16.2927 40.5755 16.2927C39.5455 16.2927 38.9205 15.6591 38.5772 15.3112C38.5476 15.2811 38.52 15.2532 38.4945 15.228C38.148 14.8859 37.9559 14.7401 37.55 14.7401C37.0003 14.7401 36.3499 15.0066 34.8808 16.0309L32.6838 28.5573C32.6837 28.5582 32.6835 28.5591 32.6834 28.5601C32.49 29.7027 32.5908 30.2068 32.6972 30.3991L32.6982 30.4008C32.7315 30.4612 32.8164 30.6148 33.4097 30.6148H35.3461L34.8665 33.0129H33.3301C32.6502 33.0129 31.917 32.96 31.2508 32.9107L31.1868 32.9059C30.5268 32.857 29.945 32.8139 29.4685 32.8139C29.0149 32.8139 28.4228 32.8562 27.746 32.9046L27.6587 32.9109C26.9681 32.9602 26.2059 33.0129 25.5273 33.0129H23.5909L24.0706 30.6148H25.607C26.2022 30.6148 26.5191 30.4615 26.7493 30.2092C27.0248 29.9074 27.3 29.3283 27.4873 28.2231L27.4886 28.2155L29.5575 16.5588C29.5577 16.5576 29.5579 16.5564 29.5581 16.5552C29.7515 15.4117 29.6492 14.9126 29.5427 14.7234C29.5089 14.6635 29.4176 14.5013 28.7918 14.5013H27.2137L27.6933 12.1032H28.8714C30.2725 12.1032 31.9628 12.0565 33.7308 10.8778L33.9828 10.7098ZM30.5434 16.7259L28.4733 28.3902C28.2694 29.5934 27.9401 30.41 27.4534 30.9204C26.9899 31.4065 26.3837 31.6148 25.607 31.6148H24.8904L24.8108 32.0129H25.5273C25.5537 32.0129 25.5803 32.0128 25.607 32.0127C25.6807 32.0122 25.7555 32.0111 25.8312 32.0095C26.4244 31.9967 27.0745 31.9501 27.6956 31.9057C27.7542 31.9015 27.8125 31.8973 27.8705 31.8932C28.4633 31.851 29.0216 31.8139 29.4685 31.8139C29.9831 31.8139 30.5981 31.8595 31.2393 31.9071C31.2813 31.9102 31.3235 31.9133 31.3658 31.9164C32.0249 31.9652 32.7061 32.0129 33.3301 32.0129H34.0467L34.1263 31.6148H33.4097C33.3829 31.6148 33.3563 31.6146 33.3301 31.614C33.2539 31.6125 33.1801 31.6087 33.1089 31.6027C32.5268 31.553 32.1119 31.3491 31.8613 30.9496C31.5426 30.4413 31.49 29.6165 31.6979 28.3902L33.9671 15.452C34.1198 15.3429 34.2665 15.2394 34.4078 15.1415C34.5307 15.0564 34.6495 14.9754 34.7646 14.8985C34.8882 14.8159 35.0075 14.738 35.123 14.6647C35.8099 14.2287 36.3593 13.9569 36.865 13.8285C37.0996 13.7689 37.3248 13.7401 37.55 13.7401C38.4166 13.7401 38.8567 14.1778 39.2696 14.5884C39.6344 14.9511 39.978 15.2927 40.5755 15.2927C41.8096 15.2927 42.2873 14.3771 42.2873 13.5809C42.2873 12.4662 41.093 11.7098 39.6201 11.7098C38.6076 11.7098 37.5952 12.1234 36.4307 12.9125C36.0659 13.1598 35.6861 13.4439 35.2868 13.7637C34.9059 14.0687 34.5071 14.4062 34.0865 14.7752L34.6438 11.7098H34.2855C34.0381 11.8748 33.7919 12.0202 33.5477 12.1484C32.5298 12.6828 31.5463 12.9184 30.6543 13.0221C30.0039 13.0977 29.4021 13.1032 28.8714 13.1032H28.5131L28.4335 13.5013H28.7918C28.8186 13.5013 28.8451 13.5015 28.8714 13.502C29.0797 13.506 29.2694 13.5258 29.4409 13.5629C29.812 13.6431 30.0975 13.8042 30.2992 14.0606C30.6896 14.557 30.7664 15.4104 30.5434 16.7259ZM58.14 27.688L57.3546 28.3828C54.2541 31.1256 51.2129 33.411 47.2969 33.411C45.102 33.411 43.3131 32.449 42.1033 30.8105C40.9159 29.2023 40.3254 27.003 40.3254 24.5286C40.3254 20.7609 41.9267 17.322 44.2168 14.8301C46.4942 12.3518 49.5505 10.7098 52.5518 10.7098C54.3634 10.7098 55.8562 11.0428 56.9251 11.7681C58.0478 12.5299 58.6077 13.6628 58.6077 14.9742C58.6077 17.6346 56.7153 19.246 54.2553 20.2406C51.9764 21.162 48.9374 21.6822 45.6319 22.0547C45.5799 22.5008 45.55 22.9324 45.55 23.3742C45.55 25.3201 46.0149 26.8356 46.7789 27.8393C47.5186 28.8111 48.5931 29.3807 50.0438 29.3807C51.7673 29.3807 53.1706 28.8372 55.7071 26.5698L56.412 25.9396L58.1346 27.6622C57.9656 26.8515 57.8782 25.9647 57.8782 25.0064C57.8782 21.301 59.259 17.7551 61.414 15.1265C63.5638 12.5043 66.5623 10.7098 69.8259 10.7098C71.3593 10.7098 72.5051 11.1803 73.3739 11.6094C73.5718 11.7071 73.7341 11.7912 73.8794 11.8665C74.0807 11.9707 74.2494 12.0581 74.4346 12.1413C74.7262 12.2724 74.8765 12.3022 74.9614 12.3022C75.0565 12.3022 75.3931 12.3021 76.1071 11.1748L76.4016 10.7098H78.5023L75.3502 28.5573C75.35 28.5583 75.3499 28.5592 75.3497 28.5601C75.1561 29.7042 75.2584 30.2034 75.365 30.3927C75.3988 30.4526 75.49 30.6148 76.1159 30.6148H78.0523L77.5727 33.0129H76.0363C74.5924 33.0129 72.6649 33.0913 70.8464 33.2099L70.4904 33.2331L69.4061 32.4585L69.5779 31.5069C67.8971 32.7106 66.469 33.411 64.5312 33.411C62.6843 33.411 60.9802 32.6887 59.7558 31.2134C58.9882 30.2886 58.4391 29.1052 58.14 27.688ZM70.5027 32.0129L70.7814 32.212C70.9843 32.1987 71.1886 32.186 71.3937 32.1738C71.426 32.1719 71.4584 32.17 71.4908 32.1681C72.4038 32.1145 73.3271 32.072 74.1893 32.045C74.8519 32.0244 75.4783 32.0129 76.0363 32.0129H76.7529L76.8325 31.6148H76.1159C76.0891 31.6148 76.0625 31.6146 76.0363 31.6141C75.96 31.6126 75.8863 31.609 75.815 31.6033C75.258 31.5582 74.8516 31.3793 74.5913 31.0332C74.2158 30.5338 74.1446 29.6862 74.3643 28.3902L77.3102 11.7098H76.9519C76.6478 12.19 76.3695 12.5414 76.1039 12.79C75.709 13.1599 75.3423 13.3022 74.9614 13.3022C74.4805 13.3022 73.9801 13.044 73.3825 12.7355C73.1246 12.6024 72.8487 12.46 72.5484 12.3249C71.8161 11.9955 70.9389 11.7098 69.8259 11.7098C69.7595 11.7098 69.6931 11.7107 69.6269 11.7123C68.6601 11.7368 67.7115 11.939 66.803 12.2914C62.363 14.0134 58.8782 19.3222 58.8782 25.0064C58.8782 29.9826 61.3862 32.411 64.5312 32.411C65.9019 32.411 66.9675 32.0188 68.2107 31.2257C68.7135 30.9049 69.2453 30.5186 69.838 30.0661C70.206 29.7851 70.5976 29.4787 71.0202 29.1466L70.5027 32.0129ZM70.376 29.0303C70.4934 28.9504 70.6122 28.8672 70.7326 28.7806C70.8534 28.6937 70.9758 28.6034 71.0998 28.5096L73.5282 14.6956C73.121 14.0758 72.6349 13.5742 72.0736 13.2082C71.4235 12.7844 70.6725 12.5425 69.8259 12.5098C69.7601 12.5073 69.6938 12.506 69.6269 12.506C68.7883 12.506 67.9865 12.7528 67.2406 13.1952C64.2684 14.9579 62.1824 19.8268 62.1824 24.5685C62.1824 28.4698 63.6952 30.5001 66.3624 30.5001C66.8413 30.5001 67.3122 30.4363 67.7889 30.3062C68.491 30.1145 69.2058 29.779 69.9779 29.2916C70.1089 29.2089 70.2415 29.1218 70.376 29.0303ZM70.1841 27.9433C68.6293 29.0678 67.4857 29.5001 66.3624 29.5001C65.3171 29.5001 64.5903 29.1215 64.0857 28.4157C63.5442 27.6584 63.1824 26.414 63.1824 24.5685C63.1824 21.7694 63.9565 18.9308 65.1989 16.8201C66.4627 14.673 68.058 13.506 69.6269 13.506C70.8016 13.506 71.7449 13.9926 72.4711 14.9335L70.1841 27.9433ZM52.0236 19.9304C55.4165 18.9998 57.6077 17.5271 57.6077 14.9742C57.6077 13.1603 56.2522 11.9415 53.4207 11.7395C53.1451 11.7199 52.8555 11.7098 52.5518 11.7098C52.3931 11.7098 52.2338 11.7151 52.0741 11.7255C50.8699 11.8038 49.6433 12.174 48.47 12.7811C44.6085 14.7794 41.3254 19.3456 41.3254 24.5286C41.3254 29.1864 43.5547 32.411 47.2969 32.411C48.9687 32.411 50.4773 31.9487 51.9352 31.1667C53.2826 30.444 54.5868 29.4483 55.9364 28.2924C56.1803 28.0834 56.4257 27.8693 56.6732 27.6505C56.6795 27.645 56.6857 27.6394 56.692 27.6338L56.3736 27.3153C54.4213 29.0606 53.0185 29.9046 51.5773 30.2232C51.0788 30.3334 50.5757 30.3807 50.0438 30.3807C46.5405 30.3807 44.55 27.5542 44.55 23.3742C44.55 22.7467 44.6048 22.1467 44.6916 21.5286C44.7095 21.4016 44.7287 21.2738 44.749 21.1448C44.8081 21.1386 44.8671 21.1324 44.926 21.1261C47.5769 20.8434 50.0115 20.4822 52.0236 19.9304ZM45.9243 20.397C45.5834 20.4372 45.2315 20.4741 44.8685 20.5078C44.8984 20.3769 44.9302 20.2463 44.964 20.1162C45.0196 19.9014 45.0804 19.6879 45.1461 19.4762C45.8954 17.0611 47.2809 14.8828 48.9912 13.6376C49.937 12.949 50.9822 12.5458 52.0741 12.5458C52.2413 12.5458 52.4006 12.555 52.5518 12.573C52.7974 12.6023 53.0217 12.6547 53.2243 12.7288C54.1139 13.0542 54.5821 13.7963 54.5821 14.815C54.5821 16.6695 53.6792 18.0349 51.6763 18.9887C50.2998 19.6442 48.4038 20.1053 45.9243 20.397ZM46.24 19.3504C48.8246 19.015 50.617 18.4915 51.7837 17.801C52.455 17.4038 52.8917 16.9671 53.1653 16.502C53.4373 16.0395 53.5821 15.4911 53.5821 14.815C53.5821 14.3327 53.4365 14.055 53.2594 13.8904C53.0729 13.7171 52.7181 13.5458 52.0741 13.5458C50.7954 13.5458 49.4861 14.2729 48.3333 15.6118C47.4632 16.6224 46.7351 17.9263 46.24 19.3504ZM87.1472 5.73357H89.3279L88.3725 11.1079H94.1127L93.6932 13.9041H87.8983L85.4965 27.4894C85.2941 28.6301 85.447 29.1824 85.6049 29.4214C85.7226 29.5997 85.9627 29.7788 86.5819 29.7788C87.4085 29.7788 88.2555 29.6306 90.0957 28.4288L90.9655 27.8607L92.2057 29.9276L91.4766 30.4677C89.3224 32.0634 87.0179 33.411 84.7506 33.411C83.3381 33.411 81.9258 32.9957 81.0354 31.7478C80.1734 30.5396 79.9851 28.7983 80.3825 26.5816L82.6411 13.9041H79.9831L80.1973 11.7621L81.2949 11.3963C83.1262 10.7976 85.5289 9.10141 86.8748 6.30046L87.1472 5.73357ZM83.835 12.9041L81.3668 26.758C80.6104 30.9779 82.2824 32.411 84.7506 32.411C85.6588 32.411 86.603 32.1503 87.5745 31.7056C88.6472 31.2147 89.7533 30.4997 90.8814 29.6641L90.6425 29.266C90.6299 29.2743 90.6173 29.2825 90.6047 29.2907C90.3142 29.4796 90.044 29.6453 89.7911 29.7907C88.7335 30.3983 87.9768 30.6484 87.2859 30.7369C87.0466 30.7676 86.8152 30.7788 86.5819 30.7788C84.9497 30.7788 84.0739 29.7836 84.5118 27.3153L87.0596 12.9041H92.8321L92.9515 12.1079H87.179L88.1345 6.73357H87.7762C87.4991 7.31019 87.1812 7.84454 86.8338 8.33664C85.645 10.0207 84.1111 11.2099 82.689 11.9041C82.3175 12.0854 81.9537 12.233 81.6056 12.3468L81.1279 12.506L81.0881 12.9041H83.835ZM109.529 27.6784L108.733 28.3828C105.632 31.1256 102.591 33.411 98.6751 33.411C96.4802 33.411 94.6913 32.449 93.4816 30.8105C92.2941 29.2023 91.7036 27.003 91.7036 24.5286C91.7036 20.7609 93.3049 17.322 95.595 14.8301C97.8724 12.3518 100.929 10.7098 103.93 10.7098C105.742 10.7098 107.234 11.0428 108.303 11.7681C109.426 12.5299 109.986 13.6628 109.986 14.9742C109.986 17.6346 108.094 19.246 105.634 20.2406C103.355 21.162 100.316 21.6822 97.0102 22.0547C96.9581 22.5008 96.9282 22.9324 96.9282 23.3742C96.9282 25.3201 97.3932 26.8356 98.1571 27.8393C98.8968 28.8111 99.9714 29.3807 101.422 29.3807C103.146 29.3807 104.549 28.8372 107.085 26.5698L107.79 25.9396L109.529 27.6784ZM103.402 19.9304C106.795 18.9998 108.986 17.5271 108.986 14.9742C108.986 13.1603 107.63 11.9415 104.799 11.7395C104.523 11.7199 104.234 11.7098 103.93 11.7098C103.771 11.7098 103.612 11.7151 103.452 11.7255C102.248 11.8038 101.021 12.174 99.8482 12.7811C95.9868 14.7795 92.7036 19.3456 92.7036 24.5286C92.7036 29.1864 94.933 32.411 98.6751 32.411C100.347 32.411 101.856 31.9487 103.313 31.1667C104.661 30.444 105.965 29.4483 107.315 28.2924C107.559 28.0834 107.804 27.8693 108.051 27.6505C108.058 27.645 108.064 27.6394 108.07 27.6338L107.752 27.3153C105.8 29.0606 104.397 29.9046 102.955 30.2232C102.457 30.3334 101.954 30.3807 101.422 30.3807C97.9187 30.3807 95.9282 27.5542 95.9282 23.3742C95.9282 22.7467 95.983 22.1467 96.0698 21.5286C96.0877 21.4016 96.1069 21.2738 96.1273 21.1448C96.1863 21.1386 96.2453 21.1324 96.3042 21.1261C98.9551 20.8434 101.39 20.4822 103.402 19.9304ZM97.3025 20.397C96.9616 20.4372 96.6098 20.4741 96.2467 20.5078C96.2766 20.3769 96.3085 20.2463 96.3422 20.1162C96.3979 19.9014 96.4587 19.6879 96.5244 19.4762C97.2737 17.0611 98.6591 14.8828 100.369 13.6376C101.315 12.949 102.36 12.5458 103.452 12.5458C103.62 12.5458 103.779 12.555 103.93 12.573C104.176 12.6023 104.4 12.6547 104.602 12.7288C105.492 13.0542 105.96 13.7963 105.96 14.815C105.96 16.6695 105.057 18.0349 103.055 18.9887C101.678 19.6442 99.782 20.1053 97.3025 20.397ZM97.6182 19.3504C100.203 19.015 101.995 18.4915 103.162 17.801C103.833 17.4038 104.27 16.9671 104.544 16.502C104.815 16.0395 104.96 15.4911 104.96 14.815C104.96 14.3327 104.815 14.055 104.638 13.8904C104.451 13.7171 104.096 13.5458 103.452 13.5458C102.174 13.5458 100.864 14.2729 99.7116 15.6118C98.8414 16.6224 98.1134 17.9263 97.6182 19.3504Z" fill="#FF0072" fill-opacity="0.5"/>
</svg>
