<svg width="130" height="43" viewBox="0 0 130 43" fill="none" xmlns="http://www.w3.org/2000/svg">
<path fill-rule="evenodd" clip-rule="evenodd" d="M22.086 29.9129C22.0145 30.0731 21.9449 30.2276 21.8766 30.3761H22.3657C22.9615 30.3761 23.6674 30.1426 24.5967 29.4884C25.5311 28.8307 26.6171 27.8006 27.9547 26.3253L27.9566 26.3231L32.0301 21.8566L28.9925 15.8538C28.3849 14.6189 27.9425 13.9952 27.5494 13.6647C27.219 13.3869 26.8658 13.2673 26.2273 13.2673H24.689L25.1686 10.8692H26.6254C27.1672 10.8692 27.9144 10.9224 28.5886 10.9713L28.6436 10.9753C29.3281 11.0249 29.9255 11.0682 30.2879 11.0682C30.6685 11.0682 31.3061 11.0254 32.033 10.9766L32.1169 10.9709C32.8471 10.9219 33.6509 10.8692 34.2291 10.8692H36.1655L35.6859 13.2673H34.1495C33.9049 13.2673 33.7739 13.3028 33.7176 13.3261C33.7128 13.3661 33.7104 13.4487 33.7375 13.5899C33.78 13.811 33.8847 14.1195 34.0881 14.5263V14.5263L35.8636 18.0483L37.955 15.7668C38.569 15.1057 38.977 14.5574 39.2275 14.1208C39.473 13.693 39.5322 13.4333 39.5385 13.3145C39.4809 13.2945 39.3656 13.2673 39.1656 13.2673H37.2292L37.7088 10.8692H39.2452C39.8138 10.8692 40.4453 10.9234 41.0088 10.9724L41.0303 10.9743C41.6098 11.0247 42.11 11.0682 42.5096 11.0682C42.8701 11.0682 43.3781 11.0248 43.9704 10.9742L43.992 10.9723C44.5626 10.9235 45.2053 10.8692 45.7342 10.8692H47.3123L47.1132 11.8644C48.5402 11.8639 50.1536 11.8146 51.959 10.6341L52.2083 10.4711H54.0522L53.7235 12.373C55.3985 11.1782 56.8116 10.4711 58.7564 10.4711C60.6033 10.4711 62.3074 11.1934 63.5318 12.6686C64.7422 14.127 65.4094 16.2284 65.4094 18.8757C65.4094 22.5811 64.0286 26.127 61.8736 28.7556C59.7238 31.3778 56.7253 33.1723 53.4617 33.1723C52.0899 33.1723 51.0315 32.9187 50.1568 32.5714L49.1529 38.2711L49.1524 38.2742C48.9591 39.4165 49.0599 39.9205 49.1663 40.1129L49.1673 40.1145C49.2006 40.1749 49.2855 40.3286 49.8788 40.3286H51.8152L51.3356 42.7267H49.7992C49.1196 42.7267 48.3769 42.6738 47.7055 42.6244L47.6209 42.6182C46.9633 42.5698 46.3902 42.5276 45.9376 42.5276C45.484 42.5276 44.892 42.5699 44.2153 42.6183L44.1278 42.6246C43.4372 42.6739 42.675 42.7267 41.9964 42.7267H40.06L40.5396 40.3286H42.076C42.6713 40.3286 42.9881 40.1753 43.2184 39.923C43.4939 39.6211 43.7691 39.0421 43.9564 37.9368L43.9576 37.9298L47.7782 16.32L47.7788 16.3165C47.9722 15.1729 47.8699 14.6739 47.7634 14.4847C47.7296 14.4247 47.6383 14.2625 47.0125 14.2625H45.4344L45.6334 13.2674C45.0698 13.2726 44.4914 13.4878 43.6859 14.1226C42.847 14.7837 41.8668 15.8144 40.5035 17.318L40.4984 17.3237L37.2655 20.8347L40.6941 27.619V27.619C41.3573 28.9246 41.7194 29.602 42.0738 29.9904C42.2245 30.1554 42.3476 30.2354 42.4688 30.2838C42.5992 30.3359 42.7894 30.3761 43.1067 30.3761H44.5654L44.0858 32.7742H43.0669C42.5427 32.7742 41.8118 32.743 41.1372 32.7135L41.0407 32.7093C40.3842 32.6805 39.7972 32.6547 39.4442 32.6547C39.0232 32.6547 38.2676 32.6817 37.4512 32.7109L37.37 32.7138C36.5416 32.7434 35.6645 32.7742 35.1049 32.7742H33.1685L33.6482 30.3761H35.1984L35.2123 30.3764C35.6947 30.3898 35.8296 30.2201 35.8592 30.1657C35.9011 30.0889 36.0139 29.7432 35.6117 28.9723L35.6084 28.9659L33.4372 24.6542L30.5576 27.8604L30.5558 27.8624C29.9393 28.5562 29.4893 29.1343 29.1833 29.6041C28.9602 29.9465 28.8349 30.1997 28.7696 30.3744C28.7954 30.3755 28.8237 30.3761 28.8548 30.3761H30.7911L30.3115 32.7742H28.7751C28.2027 32.7742 27.6189 32.7193 27.1029 32.6701L27.0835 32.6683C26.5545 32.6179 26.1052 32.5751 25.7098 32.5751C25.3459 32.5751 24.7875 32.6191 24.1461 32.6696L24.1212 32.6715C23.5021 32.7203 22.8116 32.7742 22.2861 32.7742H20.708L20.8413 32.1075C20.6336 32.3216 20.3908 32.496 20.097 32.6124C19.767 32.7432 19.4383 32.7742 19.1427 32.7742H0.083374L0.323184 30.3761H1.94475C2.55424 30.3761 2.8796 30.2238 3.10765 29.9884C3.37329 29.7143 3.64197 29.1888 3.82673 28.1742L3.8272 28.1716L7.84594 5.37226L7.84649 5.36904C8.04 4.22526 7.93769 3.72613 7.83115 3.53693C7.79738 3.47693 7.70609 3.31476 7.08024 3.31476H5.14386L5.62348 0.916654H19.6204C21.3463 0.916654 23.2302 0.838028 24.6751 0.720876L25.9611 0.6166L24.6822 8.01233H22.2224L22.6224 6.01217C22.783 5.24123 22.6338 4.8593 22.3772 4.62342C22.0443 4.3174 21.2616 3.99152 19.5806 3.99152H16.0375C14.8159 3.99152 14.0478 4.09311 13.5504 4.26809L11.6932 14.9298H16.1569C17.5683 14.9298 18.316 14.6988 18.7644 14.3818C19.1929 14.0787 19.5032 13.587 19.7746 12.6655L20.2196 11.108H22.552L22.2344 12.6961L22.2338 12.699C22.1136 13.3196 21.9554 14.0137 21.8057 14.6705L21.7947 14.7189C21.6408 15.3936 21.4982 16.0221 21.4032 16.5321C21.3467 16.9163 21.2956 17.3606 21.2397 17.8475C21.2208 18.0122 21.2013 18.1818 21.1808 18.3556C21.101 19.0342 21.0079 19.7628 20.8808 20.4193L20.8797 20.4254L20.6392 21.6274H18.3614L18.5455 19.6938C18.6359 18.7722 18.4686 18.44 18.2878 18.2743C18.0467 18.0532 17.4516 17.8056 15.9977 17.8056H11.1851L9.12203 29.615C9.2017 29.6471 9.30461 29.6816 9.43671 29.7152C9.88952 29.8304 10.5427 29.8983 11.4195 29.8983H14.883C17.0822 29.8983 18.4033 29.3766 19.3314 28.5885C20.2952 27.7701 20.9574 26.5666 21.6449 24.9364L21.9937 24.1091L24.3364 24.8119L22.086 29.9129ZM17.2752 16.8809C18.2708 17.0159 18.8869 17.3337 19.2269 17.844C19.5237 18.2896 19.6101 18.8819 19.5549 19.6274C19.5509 19.6812 19.5462 19.7359 19.5408 19.7913L19.4612 20.6274H19.8194L19.8991 20.2293C19.924 20.1005 19.9476 19.9682 19.9701 19.8334L19.9703 19.8323C20.0819 19.1634 20.166 18.4315 20.2446 17.7471C20.2488 17.7108 20.2529 17.6747 20.2571 17.6386C20.3099 17.1792 20.3608 16.7441 20.4166 16.3677C20.4721 16.0677 20.5432 15.7306 20.6219 15.3736C20.6871 15.0781 20.7576 14.7691 20.8289 14.4563C20.9317 14.005 21.0364 13.5458 21.1297 13.108C21.1329 13.093 21.1361 13.0779 21.1393 13.0629L21.1399 13.0597C21.1801 12.8701 21.218 12.6848 21.2526 12.5061L21.3322 12.108H20.9739L20.7351 12.944C20.4926 13.7683 20.1846 14.4154 19.7043 14.8934C19.1658 15.4294 18.4107 15.7526 17.2888 15.8743C16.9469 15.9114 16.5711 15.9298 16.1569 15.9298H10.5039L12.6536 3.58868C13.3702 3.15077 14.4451 2.99152 16.0375 2.99152H19.5806C21.6148 2.99152 22.7765 3.43446 23.3152 4.18004C23.6709 4.67232 23.755 5.29655 23.6392 6.01233C23.6283 6.07947 23.6157 6.14742 23.6014 6.21614L23.4422 7.01233H23.8403L24.7559 1.7176C24.4324 1.74383 24.0879 1.76814 23.7285 1.7901C22.4514 1.86816 20.9874 1.91665 19.6204 1.91665H6.44328L6.36366 2.31476H7.08024C7.18502 2.31476 7.28532 2.31855 7.38116 2.3263C7.94894 2.37224 8.36023 2.55723 8.61975 2.91665C8.98217 3.41859 9.0486 4.26072 8.83188 5.53936L4.81107 28.3505C4.59921 29.5157 4.25206 30.2976 3.73361 30.7742C3.27785 31.1931 2.68972 31.3761 1.94475 31.3761H1.22817L1.18836 31.7742H19.1427C20.0301 31.7742 20.3192 31.4002 21.0973 29.6738C21.122 29.6189 21.1472 29.5626 21.173 29.505L22.9644 25.4444L22.5663 25.3249C21.9281 26.8384 21.2565 28.1347 20.2607 29.0953C19.3799 29.945 18.2453 30.532 16.6558 30.7742C16.1193 30.8559 15.5309 30.8983 14.883 30.8983H11.4195C10.7201 30.8983 10.1194 30.8577 9.62182 30.7742C8.81671 30.639 8.28173 30.3916 8.03568 30.0225L10.3447 16.8056H15.9977C16.0515 16.8056 16.1046 16.8059 16.1569 16.8065C16.5739 16.8115 16.9453 16.8361 17.2752 16.8809ZM36.4983 28.5097C37.0067 29.4843 37.0078 30.2446 36.6816 30.7367C36.3948 31.1693 35.855 31.3947 35.1845 31.3761H34.468L34.3884 31.7742H35.1049C35.1272 31.7742 35.1501 31.7741 35.1735 31.774C35.1772 31.774 35.1809 31.774 35.1845 31.774C35.2548 31.7736 35.3297 31.7728 35.4087 31.7717C35.8878 31.7646 36.5144 31.7435 37.1441 31.7212C37.2411 31.7178 37.3381 31.7143 37.4347 31.7109C38.2351 31.6822 39.0047 31.6547 39.4442 31.6547C39.804 31.6547 40.3752 31.6791 40.9851 31.7059C41.0124 31.7071 41.0398 31.7083 41.0672 31.7095C41.7833 31.7409 42.5416 31.7742 43.0669 31.7742H43.266L43.3456 31.3761H43.1067C43.0934 31.3761 43.0801 31.376 43.0669 31.3759C42.7949 31.3736 42.5569 31.3472 42.3426 31.2921C41.9717 31.1967 41.6718 31.015 41.3897 30.7226C40.9003 30.2152 40.4641 29.3744 39.8025 28.0718L36.0604 20.6672L39.7627 16.6464C40.0045 16.3797 40.2361 16.1257 40.4586 15.8844C41.6809 14.5588 42.631 13.6119 43.4967 13.0203C44.2385 12.5134 44.9184 12.2673 45.6546 12.2673H46.0129L46.0925 11.8692H45.7342C45.708 11.8692 45.6815 11.8693 45.6546 11.8696C45.4722 11.8716 45.2744 11.88 45.068 11.8925C44.7312 11.9127 44.3714 11.9435 44.0189 11.9737C43.7237 11.9989 43.4336 12.0237 43.166 12.0416C42.9244 12.0577 42.7013 12.0682 42.5096 12.0682C42.0873 12.0682 41.5804 12.0259 41.0552 11.9803C41.0284 11.9779 41.0016 11.9756 40.9747 11.9733C40.3859 11.922 39.7786 11.8692 39.2452 11.8692H38.5286L38.449 12.2673H39.1656C39.1924 12.2673 39.219 12.2676 39.2452 12.2683C39.3215 12.2703 39.395 12.2752 39.4656 12.283C39.9879 12.3409 40.3481 12.5581 40.4817 12.9347C40.6574 13.4302 40.4407 14.2016 39.6843 15.2488C39.5106 15.4894 39.3084 15.7444 39.076 16.0141C39.0744 16.0159 39.0729 16.0177 39.0713 16.0195C38.9516 16.1582 38.8238 16.3009 38.6878 16.4473L35.6225 19.7913L33.194 14.9743C32.7352 14.0565 32.6162 13.3787 32.7922 12.9309C32.9674 12.4852 33.4346 12.2673 34.1495 12.2673H34.8661L34.9457 11.8692H34.2291C34.2031 11.8692 34.1765 11.8693 34.1495 11.8695C34.078 11.8701 34.003 11.8715 33.925 11.8735C33.436 11.8863 32.8287 11.9255 32.2337 11.9653C32.1791 11.969 32.1246 11.9727 32.0703 11.9763C31.3698 12.0234 30.7034 12.0682 30.2879 12.0682C29.8946 12.0682 29.281 12.0241 28.6378 11.9775C28.6272 11.9767 28.6166 11.976 28.606 11.9752C27.8916 11.9233 27.1447 11.8692 26.6254 11.8692H25.9884L25.9088 12.2673H26.2273C26.3654 12.2673 26.4979 12.272 26.6254 12.2824C26.726 12.2906 26.8236 12.3023 26.9185 12.3179C27.4215 12.4005 27.8484 12.5923 28.2545 12.9524C28.7932 13.4301 29.2953 14.2041 29.8898 15.4122L33.2339 22.0207L28.6955 26.997C28.5676 27.138 28.4416 27.2756 28.3173 27.4096C26.9178 28.9187 25.7455 29.9795 24.6924 30.6219C23.8602 31.1296 23.1024 31.3761 22.3657 31.3761H22.0074L21.9278 31.7742H22.2861C22.3122 31.7742 22.3387 31.774 22.3657 31.7737C22.5435 31.7718 22.7418 31.7639 22.952 31.7522C23.3155 31.7319 23.7148 31.7005 24.1059 31.6697C24.4149 31.6453 24.7188 31.6214 24.996 31.6037C25.2659 31.5864 25.5104 31.5751 25.7098 31.5751C26.1268 31.5751 26.5851 31.6164 27.0584 31.6614C27.0888 31.6643 27.1192 31.6672 27.1497 31.6701C27.6872 31.7213 28.2418 31.7742 28.7751 31.7742H29.4917L29.5713 31.3761H28.8548C28.8278 31.3761 28.8012 31.3757 28.7751 31.3751C28.6976 31.3731 28.6241 31.3683 28.5546 31.3605C28.05 31.3041 27.7627 31.0931 27.7162 30.7182C27.6496 30.1803 28.0791 29.3047 29.0747 28.0635C29.1813 27.9306 29.2943 27.7935 29.414 27.6522L29.4158 27.6501C29.5402 27.5033 29.6716 27.3519 29.8102 27.196L33.6718 22.8965L36.4983 28.5097ZM48.5204 13.8225C48.9104 14.3189 48.987 15.1722 48.7641 16.4871L44.9424 38.104C44.7384 39.3071 44.4092 40.1237 43.9224 40.6342C43.459 41.1202 42.8527 41.3286 42.076 41.3286H41.3595L41.2798 41.7267H41.9964C42.0228 41.7267 42.0493 41.7266 42.076 41.7264C42.1497 41.7259 42.2246 41.7249 42.3003 41.7232C42.8935 41.7104 43.5436 41.6639 44.1647 41.6194C44.2233 41.6152 44.2816 41.611 44.3396 41.6069C44.9323 41.5647 45.4906 41.5276 45.9376 41.5276C46.4283 41.5276 47.0353 41.5723 47.6738 41.6194C47.7277 41.6234 47.7818 41.6274 47.8361 41.6313C48.4954 41.6797 49.1802 41.7267 49.7992 41.7267H50.5158L50.5954 41.3286H49.8788C49.852 41.3286 49.8254 41.3283 49.7992 41.3278C49.7229 41.3262 49.6492 41.3225 49.578 41.3164C48.9963 41.2668 48.5815 41.0631 48.3309 40.6641C48.0118 40.1559 47.959 39.3309 48.167 38.104L49.4011 31.0974C49.6913 31.2599 49.9985 31.4191 50.3345 31.563C50.682 31.7119 51.0603 31.8444 51.4825 31.9476C52.0517 32.0867 52.7007 32.1723 53.4617 32.1723C53.5281 32.1723 53.5945 32.1714 53.6607 32.1697C54.6275 32.1453 55.5761 31.9431 56.4846 31.5907C60.9246 29.8687 64.4094 24.5599 64.4094 18.8757C64.4094 13.8995 61.9014 11.4711 58.7564 11.4711C57.3846 11.4711 56.3329 11.8639 55.0998 12.6496C54.5998 12.9682 54.07 13.3514 53.477 13.7992C53.1134 14.0738 52.726 14.3726 52.3072 14.6957L52.8645 11.4711H52.5063C52.2597 11.6323 52.016 11.7748 51.7754 11.9009C50.7417 12.4427 49.7664 12.6802 48.876 12.784C48.2338 12.859 47.6358 12.8644 47.0921 12.8644H46.7338L46.6542 13.2625H47.0125C47.0393 13.2625 47.0658 13.2628 47.0921 13.2633C47.3004 13.2672 47.4902 13.287 47.6617 13.3241C48.0331 13.4044 48.3187 13.5657 48.5204 13.8225ZM51.8008 30.9954C52.3064 31.2201 52.86 31.349 53.4617 31.3722C53.5275 31.3748 53.5938 31.3761 53.6607 31.3761C54.4993 31.3761 55.3011 31.1293 56.047 30.6869C59.0192 28.9242 61.1052 24.0553 61.1052 19.3136C61.1052 15.4122 59.5924 13.3819 56.9252 13.3819C56.4536 13.3819 55.9897 13.4438 55.5203 13.5701C54.8217 13.7579 54.1108 14.0882 53.3439 14.569C53.2216 14.6457 53.0978 14.7262 52.9724 14.8106C52.8489 14.8938 52.7238 14.9807 52.597 15.0713C52.4626 15.1674 52.3263 15.2678 52.1878 15.3724L49.7196 29.1865C50.2869 30.0139 50.9807 30.6308 51.8008 30.9954ZM50.7796 28.9393C51.5398 29.8913 52.4891 30.3761 53.6607 30.3761C55.2296 30.3761 56.8249 29.2091 58.0887 27.062C59.3311 24.9513 60.1052 22.1127 60.1052 19.3136C60.1052 17.468 59.7434 16.2237 59.202 15.4664C58.6973 14.7606 57.9705 14.3819 56.9252 14.3819C55.8016 14.3819 54.6577 14.8145 53.1022 15.9398L50.7796 28.9393ZM75.0532 0.518555H76.9061L72.0026 28.3186L72.002 28.3223C71.8088 29.4642 71.9096 29.9681 72.016 30.1604L72.017 30.162C72.0503 30.2224 72.1352 30.3761 72.7285 30.3761H74.6649L74.1852 32.7742H72.6489C71.9693 32.7742 71.2265 32.7213 70.5552 32.6719L70.4703 32.6657C69.8128 32.6173 69.2398 32.5751 68.7873 32.5751C68.3337 32.5751 67.7415 32.6175 67.0648 32.6659L66.9775 32.6721C66.2869 32.7214 65.5247 32.7742 64.8461 32.7742H62.9097L63.3893 30.3761H64.9257C65.521 30.3761 65.8378 30.2228 66.0681 29.9705C66.3435 29.6686 66.6188 29.0896 66.8061 27.9843L66.8073 27.9773L70.6279 6.36751L70.6284 6.36451C70.8219 5.22058 70.7196 4.7214 70.6131 4.53218C70.5793 4.47219 70.488 4.31001 69.8622 4.31001H68.2841L68.7637 1.91191H69.9418C71.3429 1.91191 73.0332 1.86521 74.8012 0.686505L75.0532 0.518555ZM71.6138 6.53462L67.792 28.1514C67.5881 29.3546 67.2589 30.1712 66.7721 30.6817C66.3087 31.1677 65.7024 31.3761 64.9257 31.3761H64.2091L64.1295 31.7742H64.8461C64.8725 31.7742 64.899 31.7741 64.9257 31.7739C64.9994 31.7734 65.0743 31.7724 65.15 31.7707C65.7431 31.7579 66.3932 31.7114 67.0144 31.6669C67.073 31.6627 67.1313 31.6585 67.1893 31.6544C67.782 31.6122 68.3403 31.5751 68.7873 31.5751C69.278 31.5751 69.885 31.6198 70.5235 31.6669C70.5774 31.6709 70.6315 31.6749 70.6858 31.6788C71.345 31.7272 72.0299 31.7742 72.6489 31.7742H73.3654L73.4451 31.3761H72.7285C72.7016 31.3761 72.6751 31.3758 72.6489 31.3753C72.5726 31.3737 72.4989 31.37 72.4277 31.3639C71.846 31.3143 71.4312 31.1106 71.1806 30.7116C70.8615 30.2034 70.8087 29.3784 71.0167 28.1514L75.7142 1.51855H75.3559C75.1098 1.68266 74.8648 1.82745 74.6218 1.9552C73.6026 2.49093 72.6178 2.727 71.7248 2.83082C71.0743 2.90644 70.4725 2.91191 69.9418 2.91191H69.5835L69.5039 3.31001H69.8622C69.889 3.31001 69.9155 3.31025 69.9418 3.31075C70.1501 3.31472 70.3399 3.33454 70.5114 3.37162C70.8825 3.45185 71.1679 3.61295 71.3696 3.86937C71.76 4.36569 71.8368 5.21914 71.6138 6.53462ZM96.2746 19.3932C96.2746 26.2767 91.9373 33.1723 84.4463 33.1723C79.0836 33.1723 75.763 29.0656 75.763 24.2501C75.763 17.3666 80.1004 10.4711 87.5913 10.4711C92.9541 10.4711 96.2746 14.5777 96.2746 19.3932ZM86.6784 30.8986C90.3763 29.168 91.8112 23.072 91.8112 18.2388C91.8112 15.5429 91.1779 13.6069 89.6503 12.7536C89.089 12.44 88.407 12.2726 87.5913 12.2674C87.5781 12.2673 87.5648 12.2673 87.5515 12.2673C86.746 12.2673 86.0169 12.437 85.3592 12.7447C81.6613 14.4754 80.2265 20.5713 80.2265 25.4046C80.2265 28.1004 80.8597 30.0364 82.3874 30.8897C82.9486 31.2033 83.6306 31.3707 84.4463 31.3759C84.4596 31.376 84.4728 31.3761 84.4861 31.3761C85.2916 31.3761 86.0208 31.2064 86.6784 30.8986ZM85.0347 11.7908C79.8393 13.1398 76.763 18.5605 76.763 24.2501C76.763 27.7879 78.7212 30.8229 82.012 31.8234C82.7574 32.05 83.5713 32.1723 84.4463 32.1723C84.4596 32.1723 84.4729 32.1722 84.4861 32.1722C85.3719 32.169 86.212 32.0579 87.0029 31.8526C92.1983 30.5035 95.2746 25.0828 95.2746 19.3932C95.2746 15.8554 93.3164 12.8204 90.0257 11.8199C89.2802 11.5933 88.4663 11.4711 87.5913 11.4711C87.578 11.4711 87.5648 11.4711 87.5515 11.4711C86.6657 11.4744 85.8257 11.5854 85.0347 11.7908ZM82.0407 29.2268C82.5123 29.9393 83.241 30.3761 84.4861 30.3761C86.5811 30.3761 88.1455 28.9438 89.2381 26.5299C90.3261 24.1259 90.8112 20.9934 90.8112 18.2388C90.8112 16.4618 90.5184 15.2045 89.9969 14.4165C89.5254 13.704 88.7966 13.2673 87.5515 13.2673C85.4565 13.2673 83.8921 14.6995 82.7996 17.1134C81.7115 19.5174 81.2265 22.6499 81.2265 25.4046C81.2265 27.1815 81.5192 28.4389 82.0407 29.2268ZM104.487 10.4711H106.346L106.056 12.066C107.441 11.0764 108.747 10.4711 110.124 10.4711C111.02 10.4711 111.893 10.699 112.573 11.1618C113.266 11.6334 113.792 12.384 113.792 13.3421C113.792 13.9235 113.62 14.5932 113.167 15.1368C112.689 15.71 111.971 16.054 111.08 16.054C110.05 16.054 109.425 15.4204 109.082 15.0724C109.052 15.0424 109.024 15.0145 108.999 14.9893C108.652 14.6472 108.46 14.5014 108.054 14.5014C107.505 14.5014 106.854 14.7678 105.385 15.7921L103.188 28.3186L103.188 28.3219C102.994 29.4641 103.095 29.968 103.202 30.1604L103.202 30.162C103.236 30.2224 103.321 30.3761 103.914 30.3761H105.85L105.371 32.7742H103.834C103.154 32.7742 102.421 32.7212 101.755 32.6719L101.691 32.6672C101.031 32.6182 100.449 32.5751 99.9728 32.5751C99.5192 32.5751 98.9271 32.6175 98.2503 32.6659L98.1631 32.6721C97.4724 32.7214 96.7102 32.7742 96.0316 32.7742H94.0953L94.5749 30.3761H96.1113C96.7065 30.3761 97.0234 30.2228 97.2536 29.9705C97.5291 29.6686 97.8043 29.0896 97.9916 27.9843L97.9929 27.9767L100.062 16.32L100.062 16.3166C100.256 15.173 100.154 14.6739 100.047 14.4847C100.013 14.4247 99.9219 14.2625 99.2961 14.2625H97.718L98.1976 11.8644H99.3757C100.777 11.8644 102.467 11.8177 104.235 10.639L104.487 10.4711ZM101.048 16.4871C101.271 15.1716 101.194 14.3182 100.804 13.8219C100.602 13.5654 100.316 13.4044 99.9453 13.3241C99.7738 13.287 99.584 13.2672 99.3757 13.2633C99.3494 13.2628 99.3229 13.2625 99.2961 13.2625H98.9378L99.0174 12.8644H99.3757C99.9064 12.8644 100.508 12.8589 101.159 12.7833C102.051 12.6796 103.034 12.444 104.052 11.9096C104.296 11.7814 104.542 11.636 104.79 11.4711H105.148L104.591 14.5364C105.011 14.1674 105.41 13.8299 105.791 13.5249C106.19 13.2051 106.57 12.921 106.935 12.6738C108.1 11.8846 109.112 11.4711 110.124 11.4711C111.597 11.4711 112.792 12.2274 112.792 13.3421C112.792 14.1383 112.314 15.054 111.08 15.054C110.482 15.054 110.139 14.7124 109.774 14.3496C109.361 13.939 108.921 13.5014 108.054 13.5014C107.829 13.5014 107.604 13.5301 107.369 13.5897C106.864 13.7182 106.314 13.9899 105.627 14.4259C105.512 14.4992 105.393 14.5771 105.269 14.6597C105.154 14.7366 105.035 14.8176 104.912 14.9028C104.771 15.0007 104.624 15.1041 104.471 15.2132L102.202 28.1514C101.994 29.3778 102.047 30.2026 102.366 30.7108C102.616 31.1103 103.031 31.3143 103.613 31.3639C103.684 31.37 103.758 31.3737 103.834 31.3753C103.861 31.3758 103.887 31.3761 103.914 31.3761H104.631L104.551 31.7742H103.834C103.21 31.7742 102.529 31.7264 101.87 31.6777C101.828 31.6746 101.786 31.6714 101.744 31.6683C101.102 31.6207 100.487 31.5751 99.9728 31.5751C99.5259 31.5751 98.9676 31.6122 98.3748 31.6544C98.3168 31.6585 98.2585 31.6627 98.2 31.6669C97.5788 31.7114 96.9287 31.7579 96.3356 31.7707C96.2598 31.7724 96.185 31.7734 96.1113 31.7739C96.0846 31.7741 96.058 31.7742 96.0316 31.7742H95.3151L95.3947 31.3761H96.1113C96.888 31.3761 97.4942 31.1677 97.9577 30.6817C98.4444 30.1712 98.7737 29.3546 98.9776 28.1514L101.048 16.4871ZM128.655 27.4397L127.859 28.1441C124.758 30.8868 121.717 33.1723 117.801 33.1723C115.606 33.1723 113.817 32.2102 112.608 30.5717C111.42 28.9635 110.83 26.7642 110.83 24.2899C110.83 20.5222 112.431 17.0833 114.721 14.5913C116.998 12.1131 120.055 10.4711 123.056 10.4711C124.868 10.4711 126.361 10.8041 127.429 11.5294C128.552 12.2912 129.112 13.4241 129.112 14.7355C129.112 17.3958 127.22 19.0073 124.76 20.0019C122.481 20.9232 119.442 21.4434 116.136 21.8159C116.084 22.262 116.054 22.6936 116.054 23.1354C116.054 25.0814 116.519 26.5968 117.283 27.6005C118.023 28.5724 119.097 29.1419 120.548 29.1419C122.272 29.1419 123.675 28.5985 126.211 26.331L126.916 25.7009L128.655 27.4397ZM122.528 19.6916C125.921 18.7611 128.112 17.2884 128.112 14.7355C128.112 12.9215 126.757 11.7027 123.925 11.5007C123.649 11.4811 123.36 11.4711 123.056 11.4711C122.897 11.4711 122.738 11.4763 122.578 11.4867C121.374 11.5651 120.148 11.9352 118.974 12.5423C115.113 14.5407 111.83 19.1068 111.83 24.2899C111.83 28.9476 114.059 32.1723 117.801 32.1723C119.473 32.1723 120.982 31.7099 122.44 30.9279C123.787 30.2052 125.091 29.2096 126.441 28.0536C126.685 27.8447 126.93 27.6305 127.177 27.4117C127.184 27.4062 127.19 27.4006 127.196 27.3951L126.878 27.0766C124.926 28.8218 123.523 29.6659 122.082 29.9844C121.583 30.0946 121.08 30.1419 120.548 30.1419C117.045 30.1419 115.054 27.3154 115.054 23.1354C115.054 22.508 115.109 21.9079 115.196 21.2898C115.214 21.1628 115.233 21.035 115.253 20.906C115.312 20.8998 115.371 20.8936 115.43 20.8873C118.081 20.6046 120.516 20.2434 122.528 19.6916ZM123.729 12.49C124.618 12.8154 125.086 13.5575 125.086 14.5762C125.086 16.4307 124.183 17.7962 122.181 18.75C120.804 19.4055 118.908 19.8665 116.429 20.1583C116.088 20.1984 115.736 20.2353 115.373 20.2691C115.403 20.1381 115.435 20.0075 115.468 19.8775C115.524 19.6626 115.585 19.4491 115.65 19.2374C116.4 16.8223 117.785 14.644 119.495 13.3989C120.441 12.7103 121.486 12.3071 122.578 12.3071C122.746 12.3071 122.905 12.3163 123.056 12.3343C123.302 12.3635 123.526 12.416 123.729 12.49ZM116.744 19.1116C117.239 17.6875 117.967 16.3837 118.838 15.373C119.99 14.0342 121.3 13.3071 122.578 13.3071C123.222 13.3071 123.577 13.4783 123.764 13.6516C123.941 13.8162 124.086 14.0939 124.086 14.5762C124.086 15.2524 123.942 15.8007 123.67 16.2632C123.396 16.7283 122.959 17.165 122.288 17.5623C121.121 18.2527 119.329 18.7763 116.744 19.1116Z" fill="#FF0072" fill-opacity="0.5"/>
</svg>
