<svg width="140" height="34" viewBox="0 0 140 34" fill="none" xmlns="http://www.w3.org/2000/svg">
<path fill-rule="evenodd" clip-rule="evenodd" d="M27.3172 28.2352C24.433 31.5513 20.2353 33.6249 15.0327 33.6249C6.22742 33.6249 0.895447 26.7905 0.895447 18.8904C0.895447 9.31422 7.11138 0.971191 17.5408 0.971191C26.3386 0.971191 31.7179 7.75758 31.7179 15.6658C31.7179 20.4511 30.1887 24.9339 27.3172 28.2352ZM8.76671 27.7705C10.0708 29.5108 12.1299 30.55 15.3114 30.55C19.0569 30.55 21.6524 28.4867 23.3626 25.451C25.0914 22.3821 25.8563 18.3941 25.8563 14.8696C25.8563 11.3241 25.1829 8.62281 23.8326 6.82682C22.5226 5.0843 20.4618 4.04606 17.3019 4.04606C13.5565 4.04606 10.961 6.10937 9.25076 9.14513C7.5219 12.214 6.75702 16.202 6.75702 19.7265C6.75702 23.2746 7.42147 25.9754 8.76671 27.7705ZM31.1292 33.6249L35.8742 6.82015C35.8744 6.81897 35.8746 6.81779 35.8748 6.81662C36.0682 5.67306 35.9659 5.174 35.8594 4.98481C35.8256 4.92482 35.7343 4.76264 35.1085 4.76264H33.5304L34.01 2.36454H35.1881C36.5893 2.36454 38.2795 2.31785 40.0476 1.13914L40.2995 0.971191H42.1546L40.0435 12.8146C41.7118 11.6265 43.1222 10.9237 45.061 10.9237C46.9078 10.9237 48.612 11.646 49.8364 13.1213C51.0468 14.5797 51.714 16.6811 51.714 19.3284C51.714 23.0337 50.3331 26.5797 48.1781 29.2082C46.0284 31.8304 43.0299 33.6249 39.7663 33.6249C38.2328 33.6249 37.0871 33.1544 36.2183 32.7253C36.0204 32.6276 35.858 32.5435 35.7127 32.4682C35.5114 32.364 35.3428 32.2767 35.1576 32.1934C34.866 32.0624 34.7157 32.0325 34.6308 32.0325H34.6293C34.5769 32.0324 34.2396 32.0316 33.5249 33.1599L33.2304 33.6249H31.1292ZM40.9606 1.97119H40.6023C40.3557 2.13558 40.1103 2.28058 39.8669 2.4085C38.8481 2.94376 37.8637 3.17968 36.9711 3.28345C36.3206 3.35908 35.7189 3.36454 35.1881 3.36454H34.8298L34.7502 3.76264H35.1085C35.1353 3.76264 35.1619 3.76289 35.1881 3.76339C35.3964 3.76736 35.5862 3.78717 35.7577 3.82425C36.1288 3.90449 36.4142 4.06559 36.6159 4.32201C37.0064 4.81833 37.0831 5.67177 36.8601 6.98725L32.3218 32.6249H32.6801C32.9856 32.1425 33.2651 31.79 33.5292 31.5412C33.9189 31.174 34.2748 31.0325 34.6308 31.0325C35.1117 31.0325 35.612 31.2907 36.2097 31.5992C36.4573 31.727 36.7216 31.8634 37.0081 31.9937C37.7475 32.3298 38.6352 32.6249 39.7663 32.6249C39.8327 32.6249 39.8991 32.6241 39.9653 32.6224C40.9321 32.5979 41.8806 32.3957 42.7891 32.0434C47.2292 30.3214 50.714 25.0125 50.714 19.3284C50.714 14.3521 48.206 11.9237 45.061 11.9237C43.6847 11.9237 42.6306 12.3191 41.3925 13.1099C40.8979 13.4257 40.3739 13.8047 39.7882 14.2468C39.4227 14.5227 39.0332 14.8232 38.6118 15.1483L40.9606 1.97119ZM39.2649 15.2647C39.1436 15.3458 39.0211 15.4303 38.8973 15.5184C38.7769 15.604 38.6552 15.693 38.5322 15.7853L36.0639 29.679C36.4632 30.2692 36.9382 30.7534 37.4855 31.1119C38.1432 31.5426 38.9053 31.7917 39.7663 31.8249C39.832 31.8274 39.8984 31.8287 39.9653 31.8287C40.8039 31.8287 41.6056 31.5819 42.3516 31.1396C45.3238 29.3768 47.4098 24.508 47.4098 19.7663C47.4098 15.8649 45.897 13.8346 43.2297 13.8346C42.7611 13.8346 42.2924 13.8991 41.8148 14.0293C41.1216 14.2183 40.4096 14.5458 39.6512 15.0158C39.5237 15.0947 39.395 15.1777 39.2649 15.2647ZM39.4466 16.3549C40.9651 15.2696 42.141 14.8346 43.2297 14.8346C44.2751 14.8346 45.0019 15.2132 45.5065 15.919C46.048 16.6763 46.4098 17.9207 46.4098 19.7663C46.4098 22.5653 45.6357 25.4039 44.3933 27.5146C43.1294 29.6617 41.5341 30.8287 39.9653 30.8287C38.7925 30.8287 37.8489 30.3432 37.1232 29.4334L39.4466 16.3549ZM64.5761 19.2535L64.6564 18.1789C64.8021 16.231 64.3364 15.161 63.7832 14.5771C63.2206 13.9832 62.405 13.7199 61.5134 13.7199C60.7299 13.7199 60.11 13.9687 59.6958 14.3534C59.2907 14.7295 59.0101 15.3011 59.0101 16.1037C59.0101 16.7706 59.2875 17.3453 59.8409 17.9697C60.3101 18.4991 60.9017 18.9853 61.5918 19.5523C61.76 19.6906 61.9342 19.8337 62.1138 19.9833C63.8686 21.4457 65.9371 23.3794 65.9371 26.7728C65.9371 30.1914 63.26 33.6249 58.3286 33.6249C56.3249 33.6249 54.7652 33.3116 53.417 32.6741L53.0653 33.2268H50.9814L51.1299 32.0718C51.4823 29.3315 51.5893 28.4988 51.3613 26.0287L51.2759 25.1032L53.6873 24.7013L53.8258 25.7228C54.1287 27.9568 54.7601 29.1954 55.4773 29.8824C56.1744 30.5502 57.0917 30.8287 58.2888 30.8287C59.3404 30.8287 60.0505 30.5156 60.4954 30.074C60.9405 29.6322 61.23 28.953 61.23 28.0069C61.23 26.2574 59.9523 25.1971 58.0895 23.6571C56.3709 22.2363 54.2234 20.4284 54.2234 17.2582C54.2234 15.4015 55.018 13.7872 56.388 12.6556C57.745 11.5345 59.6164 10.9237 61.7523 10.9237C63.4727 10.9237 64.8121 11.2882 65.8436 11.78L66.0836 11.3218H68.3456L68.0609 12.5479C68.0207 12.7213 67.9818 12.8879 67.9441 13.0489C67.4975 14.9613 67.236 16.081 67.1302 18.301L67.0849 19.2535H64.5761ZM65.914 12.9475C65.7481 12.8507 65.5701 12.7563 65.3792 12.6666C64.8699 12.4271 64.2687 12.2202 63.5613 12.086C63.0221 11.9837 62.4212 11.9237 61.7523 11.9237C61.6721 11.9237 61.5925 11.9246 61.5134 11.9265C60.6542 11.9468 59.8599 12.0769 59.1456 12.3016C56.7259 13.0628 55.2234 14.9101 55.2234 17.2582C55.2234 19.9961 57.0968 21.5417 58.9062 23.0346C60.596 24.4288 62.23 25.7769 62.23 28.0069C62.23 29.5045 61.6271 30.6671 60.5191 31.2993C59.9278 31.6367 59.1927 31.823 58.3286 31.8286C58.3154 31.8287 58.3021 31.8287 58.2888 31.8287C57.4841 31.8287 56.7321 31.7161 56.0559 31.4345C54.9692 30.9819 54.0781 30.0926 53.4784 28.5322C53.287 28.0342 53.1252 27.4679 52.9962 26.8257C52.937 26.5308 52.8847 26.2199 52.8396 25.8923C52.838 25.8806 52.8364 25.8689 52.8348 25.8572L52.3571 25.9368C52.4629 27.0834 52.4984 27.9017 52.474 28.7C52.4548 29.3251 52.3989 29.938 52.3112 30.6866C52.3048 30.7414 52.2982 30.7969 52.2914 30.8532C52.2769 30.9739 52.2617 31.0983 52.2456 31.2268C52.2158 31.4663 52.1833 31.7203 52.1483 31.9926C52.1395 32.0612 52.1306 32.131 52.1214 32.202L52.1182 32.2268H52.5163L53.0737 31.351C53.1242 31.3822 53.1751 31.4129 53.2264 31.443C53.9724 31.8813 54.7943 32.2016 55.7689 32.3973C56.5095 32.546 57.3382 32.6228 58.2888 32.6249C58.302 32.6249 58.3153 32.6249 58.3286 32.6249C59.3004 32.6249 60.1664 32.4778 60.9255 32.2177C63.5874 31.3056 64.9371 29.0031 64.9371 26.7728C64.9371 23.5926 62.8632 21.8902 60.985 20.3484C59.4306 19.0725 58.0101 17.9065 58.0101 16.1037C58.0101 14.7776 58.6077 13.7817 59.546 13.2248C60.1005 12.8957 60.774 12.7199 61.5134 12.7199C61.5929 12.7199 61.6725 12.7216 61.7523 12.7252C62.2719 12.7484 62.7947 12.8492 63.2819 13.0514C64.2036 13.434 64.9978 14.1797 65.4008 15.4503C65.5632 15.9625 65.6622 16.5601 65.6802 17.2535C65.6882 17.5602 65.6804 17.8857 65.6553 18.2308C65.6548 18.2384 65.6542 18.2459 65.6537 18.2535H66.1314C66.1866 17.0947 66.2842 16.2164 66.4244 15.3868C66.4704 15.1143 66.5211 14.8469 66.5763 14.5767C66.6501 14.2153 66.7322 13.8487 66.8224 13.4572C66.8328 13.4124 66.8432 13.3673 66.8537 13.3218C66.891 13.1612 66.9295 12.9962 66.9694 12.8254C66.9936 12.7217 67.0184 12.6159 67.0436 12.5077C67.0578 12.4465 67.0722 12.3846 67.0868 12.3218H66.6887L66.2508 13.1578C66.1445 13.087 66.0324 13.0166 65.914 12.9475ZM85.4238 27.8923L84.6276 28.5967C81.5271 31.3394 78.4859 33.6249 74.5699 33.6249C72.3749 33.6249 70.5861 32.6628 69.3763 31.0244C68.1889 29.4161 67.5984 27.2169 67.5984 24.7425C67.5984 20.9748 69.1997 17.5359 71.4897 15.0439C73.7672 12.5657 76.8235 10.9237 79.8248 10.9237C81.6364 10.9237 83.1292 11.2567 84.1981 11.982C85.3208 12.7438 85.8806 13.8767 85.8806 15.1881C85.8806 17.8484 83.9883 19.4599 81.5283 20.4545C79.2493 21.3759 76.2104 21.896 72.9049 22.2686C72.8529 22.7147 72.823 23.1462 72.823 23.588C72.823 25.534 73.2879 27.0495 74.0518 28.0532C74.7915 29.025 75.8661 29.5946 77.3167 29.5946C79.0403 29.5946 80.4436 29.0511 82.9801 26.7837L83.685 26.1535L85.4238 27.8923ZM79.2966 20.1442C82.6895 19.2137 84.8806 17.741 84.8806 15.1881C84.8806 13.3742 83.5252 12.1553 80.6936 11.9534C80.4181 11.9337 80.1284 11.9237 79.8248 11.9237C79.666 11.9237 79.5068 11.929 79.3471 11.9393C78.1429 12.0177 76.9162 12.3878 75.743 12.995C71.8815 14.9933 68.5984 19.5594 68.5984 24.7425C68.5984 29.4003 70.8277 32.6249 74.5699 32.6249C76.2417 32.6249 77.7503 32.1625 79.2082 31.3806C80.5556 30.6579 81.8597 29.6622 83.2093 28.5062C83.4533 28.2973 83.6987 28.0831 83.9462 27.8644C83.9524 27.8588 83.9587 27.8533 83.965 27.8477L83.6465 27.5292C81.6943 29.2744 80.2915 30.1185 78.8502 30.4371C78.3518 30.5473 77.8487 30.5946 77.3167 30.5946C73.8135 30.5946 71.823 27.7681 71.823 23.588C71.823 22.9606 71.8777 22.3606 71.9646 21.7425C71.9824 21.6154 72.0016 21.4876 72.022 21.3587C72.0811 21.3525 72.1401 21.3462 72.199 21.3399C74.8498 21.0572 77.2845 20.6961 79.2966 20.1442ZM73.1972 20.6109C72.8564 20.651 72.5045 20.6879 72.1414 20.7217C72.1714 20.5907 72.2032 20.4602 72.2369 20.3301C72.2926 20.1152 72.3534 19.9017 72.4191 19.69C73.1684 17.275 74.5539 15.0967 76.2641 13.8515C77.21 13.1629 78.2552 12.7597 79.3471 12.7597C79.5143 12.7597 79.6736 12.7689 79.8248 12.7869C80.0704 12.8161 80.2947 12.8686 80.4972 12.9427C81.3869 13.2681 81.8551 14.0101 81.8551 15.0289C81.8551 16.8834 80.9522 18.2488 78.9493 19.2026C77.5728 19.8581 75.6768 20.3192 73.1972 20.6109ZM73.513 19.5642C76.0975 19.2289 77.89 18.7054 79.0567 18.0149C79.728 17.6177 80.1647 17.181 80.4383 16.7158C80.7102 16.2534 80.8551 15.705 80.8551 15.0289C80.8551 14.5466 80.7095 14.2689 80.5324 14.1043C80.3459 13.931 79.9911 13.7597 79.3471 13.7597C78.0684 13.7597 76.7591 14.4868 75.6063 15.8257C74.7361 16.8363 74.0081 18.1402 73.513 19.5642ZM93.253 10.9237H95.1123L94.8223 12.5187C96.2071 11.529 97.5131 10.9237 98.8903 10.9237C99.5708 10.9237 100.238 11.0554 100.818 11.3218H101.845C102.318 11.3218 102.815 11.3472 103.329 11.3734C103.39 11.3765 103.451 11.3797 103.513 11.3828C104.101 11.4125 104.738 11.4412 105.468 11.4412C106.196 11.4412 106.946 11.4127 107.728 11.383L107.749 11.3822C108.533 11.3525 109.347 11.3218 110.166 11.3218H112.102L111.622 13.7199H110.086C109.496 13.7199 109.295 13.8716 109.235 13.9467C109.18 14.0156 109.019 14.302 109.226 15.1493L109.227 15.1526L111.678 25.3126L116.635 17.0191C117.534 15.5341 117.767 14.5855 117.708 14.1193C117.685 13.9426 117.63 13.892 117.587 13.8612C117.514 13.8091 117.32 13.7199 116.893 13.7199H114.957L115.437 11.3218H116.973C117.555 11.3218 118.291 11.375 118.957 11.424L119.008 11.4277C119.682 11.4773 120.274 11.5208 120.675 11.5208C121.016 11.5208 121.572 11.478 122.219 11.4283L122.271 11.4243C122.905 11.3755 123.614 11.3218 124.139 11.3218H125.717L125.237 13.7199H124.059C122.841 13.7199 121.629 14.5201 119.502 18.0528L110.093 33.6249H108.436L103.901 16.1075L103.899 16.0995C103.637 15.0138 103.325 14.4394 103.019 14.1336C102.891 14.0055 102.744 13.9044 102.557 13.8342C102.55 14.4062 102.375 15.0581 101.933 15.5894C101.455 16.1626 100.737 16.5066 99.8458 16.5066C98.8157 16.5066 98.1907 15.873 97.8475 15.5251C97.8178 15.495 97.7903 15.4671 97.7648 15.4419C97.4183 15.0998 97.2262 14.954 96.8202 14.954C96.2706 14.954 95.6201 15.2204 94.151 16.2448L91.9541 28.7712C91.9539 28.7723 91.9537 28.7734 91.9535 28.7745C91.7603 29.9167 91.8611 30.4207 91.9675 30.613L91.9684 30.6147C92.0018 30.6751 92.0867 30.8287 92.68 30.8287H94.6164L94.1367 33.2268H92.6004C91.9204 33.2268 91.1872 33.1739 90.5211 33.1245L90.4571 33.1198C89.797 33.0709 89.2153 33.0277 88.7388 33.0277C88.2851 33.0277 87.693 33.0701 87.0163 33.1185L86.929 33.1247C86.2384 33.1741 85.4762 33.2268 84.7976 33.2268H82.8612L83.3408 30.8287H84.8772C85.4725 30.8287 85.7893 30.6754 86.0196 30.4231C86.295 30.1213 86.5703 29.5422 86.7576 28.437L86.7589 28.4293L88.8277 16.7726C88.8279 16.7715 88.8281 16.7704 88.8283 16.7693C89.0218 15.6256 88.9195 15.1265 88.8129 14.9373C88.7792 14.8773 88.6879 14.7151 88.062 14.7151H86.4839L86.9635 12.317H88.1416C89.5428 12.317 91.233 12.2703 93.0011 11.0916L93.253 10.9237ZM89.8137 16.9398L87.7435 28.6041C87.5396 29.8072 87.2103 30.6239 86.7236 31.1343C86.2602 31.6203 85.6539 31.8287 84.8772 31.8287H84.1606L84.081 32.2268H84.7976C84.824 32.2268 84.8505 32.2267 84.8772 32.2265C84.9509 32.2261 85.0258 32.225 85.1015 32.2234C85.6946 32.2105 86.3447 32.164 86.9659 32.1195C87.0245 32.1153 87.0828 32.1112 87.1408 32.107C87.7335 32.0649 88.2918 32.0277 88.7388 32.0277C89.2534 32.0277 89.8684 32.0734 90.5095 32.1209C90.5516 32.1241 90.5938 32.1272 90.6361 32.1303C91.2951 32.179 91.9764 32.2268 92.6004 32.2268H93.3169L93.3966 31.8287H92.68C92.6531 31.8287 92.6266 31.8284 92.6004 31.8279C92.5241 31.8264 92.4504 31.8226 92.3792 31.8165C91.7971 31.7669 91.3821 31.563 91.1316 31.1634C90.8129 30.6552 90.7603 29.8304 90.9681 28.6041L93.2373 15.6658C93.39 15.5567 93.5368 15.4533 93.6781 15.3554C93.801 15.2702 93.9198 15.1892 94.0349 15.1124C94.1585 15.0297 94.2778 14.9518 94.3932 14.8786C95.0802 14.4426 95.6295 14.1708 96.1353 14.0423C96.3698 13.9828 96.595 13.954 96.8202 13.954C97.6868 13.954 98.127 14.3917 98.5399 14.8023C98.9047 15.165 99.2482 15.5066 99.8458 15.5066C101.08 15.5066 101.558 14.591 101.558 13.7948C101.558 13.7696 101.557 13.7447 101.556 13.7199C101.549 13.5811 101.524 13.4481 101.481 13.3218C101.409 13.1077 101.289 12.9128 101.129 12.7409C101.127 12.7388 101.125 12.7367 101.123 12.7346C101.118 12.7297 101.114 12.7248 101.109 12.7199H101.805C101.819 12.7199 101.832 12.72 101.845 12.7201C101.921 12.7207 101.995 12.7233 102.067 12.7279C102.157 12.7336 102.245 12.7424 102.331 12.7543C102.869 12.8296 103.317 13.0318 103.693 13.3941C104.208 13.8897 104.586 14.685 104.871 15.8649L109.21 32.6249H109.529L118.645 17.5369C118.653 17.5241 118.661 17.5114 118.668 17.4986C119.894 15.4688 120.904 14.1797 121.897 13.4586C122.603 12.9454 123.301 12.7199 124.059 12.7199H124.418L124.497 12.3218H124.139C124.113 12.3218 124.086 12.3219 124.059 12.3222C123.883 12.3241 123.685 12.3319 123.473 12.3433C123.093 12.3639 122.67 12.3965 122.259 12.4281C122.016 12.4468 121.777 12.4653 121.553 12.4807C121.211 12.5043 120.905 12.5208 120.675 12.5208C120.241 12.5208 119.627 12.476 118.988 12.429C118.98 12.4284 118.973 12.4278 118.965 12.4273C118.263 12.3756 117.532 12.3218 116.973 12.3218H116.257L116.177 12.7199H116.893C116.92 12.7199 116.947 12.7202 116.973 12.7207C117.049 12.7223 117.123 12.7261 117.194 12.7321C117.822 12.7855 118.258 13.0125 118.498 13.3959C118.939 14.1023 118.714 15.3398 117.801 17.0008C117.797 17.0072 117.794 17.0137 117.79 17.0202C117.79 17.0206 117.789 17.021 117.789 17.0214C117.697 17.189 117.597 17.3609 117.491 17.5369L111.28 27.9273L108.255 15.3872C108.023 14.4394 108.11 13.783 108.426 13.3585C108.76 12.9093 109.349 12.7199 110.086 12.7199H110.803L110.882 12.3218H110.166C110.139 12.3218 110.113 12.3218 110.086 12.3219C110.011 12.3221 109.937 12.3225 109.862 12.3232C109.235 12.3288 108.608 12.3506 107.987 12.3739C107.91 12.3768 107.833 12.3797 107.757 12.3827C106.981 12.4121 106.215 12.4412 105.468 12.4412C104.964 12.4412 104.505 12.428 104.079 12.4103C103.799 12.3987 103.533 12.3851 103.279 12.3722C102.85 12.3503 102.454 12.3301 102.078 12.3238C101.999 12.3225 101.922 12.3218 101.845 12.3218H101.129L101.059 12.67C101.056 12.6668 101.052 12.6636 101.049 12.6604C100.813 12.435 100.504 12.2542 100.148 12.1281C99.773 11.9957 99.345 11.9237 98.8903 11.9237C97.8779 11.9237 96.8654 12.3373 95.701 13.1264C95.3362 13.3736 94.9564 13.6577 94.5571 13.9775C94.1761 14.2826 93.7774 14.6201 93.3568 14.9891L93.9141 11.9237H93.5558C93.3084 12.0886 93.0622 12.234 92.818 12.3623C91.8001 12.8966 90.8165 13.1323 89.9246 13.236C89.2741 13.3116 88.6724 13.317 88.1416 13.317H87.7833L87.7037 13.7151H88.062C88.0889 13.7151 88.1154 13.7154 88.1416 13.7159C88.3499 13.7199 88.5397 13.7397 88.7112 13.7768C89.0823 13.857 89.3678 14.0181 89.5695 14.2745C89.9599 14.7708 90.0366 15.6243 89.8137 16.9398ZM138.901 27.8923L138.105 28.5967C135.005 31.3394 131.963 33.6249 128.047 33.6249C125.853 33.6249 124.064 32.6628 122.854 31.0244C121.666 29.4161 121.076 27.2169 121.076 24.7425C121.076 20.9748 122.677 17.5359 124.967 15.0439C127.245 12.5657 130.301 10.9237 133.302 10.9237C135.114 10.9237 136.607 11.2567 137.676 11.982C138.798 12.7438 139.358 13.8767 139.358 15.1881C139.358 17.8484 137.466 19.4599 135.006 20.4545C132.727 21.3759 129.688 21.896 126.383 22.2686C126.33 22.7147 126.301 23.1462 126.301 23.588C126.301 25.534 126.765 27.0495 127.529 28.0532C128.269 29.025 129.344 29.5946 130.794 29.5946C132.518 29.5946 133.921 29.0511 136.458 26.7837L137.163 26.1535L138.901 27.8923ZM132.774 20.1442C136.167 19.2137 138.358 17.741 138.358 15.1881C138.358 13.3742 137.003 12.1553 134.171 11.9534C133.896 11.9337 133.606 11.9237 133.302 11.9237C133.144 11.9237 132.984 11.929 132.825 11.9393C131.62 12.0177 130.394 12.3878 129.221 12.995C125.359 14.9933 122.076 19.5594 122.076 24.7425C122.076 29.4003 124.305 32.6249 128.047 32.6249C129.719 32.6249 131.228 32.1625 132.686 31.3806C134.033 30.6579 135.337 29.6622 136.687 28.5062C136.931 28.2973 137.176 28.0831 137.424 27.8644C137.43 27.8588 137.436 27.8533 137.443 27.8477L137.124 27.5292C135.172 29.2744 133.769 30.1185 132.328 30.4371C131.829 30.5473 131.326 30.5946 130.794 30.5946C127.291 30.5946 125.301 27.7681 125.301 23.588C125.301 22.9606 125.355 22.3606 125.442 21.7425C125.46 21.6154 125.479 21.4876 125.5 21.3587C125.559 21.3525 125.618 21.3462 125.677 21.3399C128.327 21.0572 130.762 20.6961 132.774 20.1442ZM126.675 20.6109C126.334 20.651 125.982 20.6879 125.619 20.7217C125.649 20.5907 125.681 20.4602 125.715 20.3301C125.77 20.1152 125.831 19.9017 125.897 19.69C126.646 17.275 128.031 15.0967 129.742 13.8515C130.688 13.1629 131.733 12.7597 132.825 12.7597C132.992 12.7597 133.151 12.7689 133.302 12.7869C133.548 12.8161 133.772 12.8686 133.975 12.9427C134.864 13.2681 135.333 14.0102 135.333 15.0289C135.333 16.8834 134.43 18.2488 132.427 19.2026C131.05 19.8581 129.154 20.3192 126.675 20.6109ZM126.991 19.5642C129.575 19.2289 131.368 18.7054 132.534 18.0149C133.206 17.6177 133.642 17.181 133.916 16.7158C134.188 16.2534 134.333 15.705 134.333 15.0289C134.333 14.5466 134.187 14.2689 134.01 14.1043C133.824 13.931 133.469 13.7597 132.825 13.7597C131.546 13.7597 130.237 14.4868 129.084 15.8257C128.214 16.8363 127.486 18.1402 126.991 19.5642ZM30.7179 15.6658C30.7179 24.8221 24.8658 32.6249 15.0327 32.6249C6.8717 32.6249 1.89545 26.3349 1.89545 18.8904C1.89545 9.73414 7.78733 1.97119 17.5408 1.97119C25.7018 1.97119 30.7179 8.22136 30.7179 15.6658ZM5.75702 19.7265C5.75702 27.0117 8.4641 31.55 15.3114 31.55C23.7113 31.55 26.8563 22.1549 26.8563 14.8696C26.8563 7.5844 24.1094 3.04606 17.3019 3.04606C8.90201 3.04606 5.75702 12.4412 5.75702 19.7265Z" fill="#FF0072" fill-opacity="0.5"/>
</svg>
