<svg width="34" height="23" viewBox="0 0 34 23" fill="none" xmlns="http://www.w3.org/2000/svg">
<path opacity="0.3" d="M1.89355 10.2262C1.06513 10.2262 0.393555 10.8978 0.393555 11.7262C0.393555 12.5546 1.06513 13.2262 1.89355 13.2262V10.2262ZM33.0705 12.7869C33.6563 12.2011 33.6563 11.2513 33.0705 10.6655L23.5246 1.11959C22.9388 0.533808 21.989 0.533808 21.4033 1.11959C20.8175 1.70538 20.8175 2.65513 21.4033 3.24091L29.8885 11.7262L21.4033 20.2115C20.8175 20.7973 20.8175 21.747 21.4033 22.3328C21.989 22.9186 22.9388 22.9186 23.5246 22.3328L33.0705 12.7869ZM1.89355 13.2262H32.0099V10.2262H1.89355V13.2262Z" fill="#FF0072"/>
</svg>
