<svg width="34" height="24" viewBox="0 0 34 24" fill="none" xmlns="http://www.w3.org/2000/svg">
<path d="M1.84668 10.5C1.01825 10.5 0.34668 11.1716 0.34668 12C0.34668 12.8284 1.01825 13.5 1.84668 13.5V10.5ZM33.0236 13.0607C33.6094 12.4749 33.6094 11.5251 33.0236 10.9393L23.4777 1.3934C22.8919 0.807612 21.9422 0.807612 21.3564 1.3934C20.7706 1.97918 20.7706 2.92893 21.3564 3.51472L29.8417 12L21.3564 20.4853C20.7706 21.0711 20.7706 22.0208 21.3564 22.6066C21.9422 23.1924 22.8919 23.1924 23.4777 22.6066L33.0236 13.0607ZM1.84668 13.5H31.963V10.5H1.84668V13.5Z" fill="#FF0072"/>
</svg>
