<svg width="142" height="47" viewBox="0 0 142 47" fill="none" xmlns="http://www.w3.org/2000/svg">
<path fill-rule="evenodd" clip-rule="evenodd" d="M22.1338 9.81174C22.0123 9.3187 21.936 8.80939 21.76 8.33681C21.5466 7.7628 21.1067 7.63588 20.6248 8.02499C20.3401 8.25435 20.1483 8.24078 19.8949 8.05166C19.3799 7.66626 19.0266 7.89241 18.8239 8.39508C18.6134 8.91676 18.4 8.88343 18.0786 8.50026C17.7129 8.06376 17.3374 8.02672 16.9379 8.49186C16.5683 8.92219 16.3647 8.76468 16.2492 8.27065C16.1082 7.66478 15.807 7.3705 15.1552 7.74848C14.7443 7.98697 14.513 7.70824 14.6451 7.35395C14.9297 6.59133 14.5841 6.337 13.9212 6.20395C13.4951 6.11754 13.464 5.87831 13.7254 5.54499C14.0822 5.08973 14.0627 4.66481 13.5588 4.31397C13.1909 4.0577 13.1393 3.84291 13.5923 3.59402C14.0935 3.31947 14.2382 2.97704 13.9975 2.34429C13.681 1.51549 13.0961 1.58729 12.3843 1.60411C11.971 1.5372 11.485 1.59941 11.0398 1.79199C10.3443 2.0932 9.60881 2.20257 8.88001 2.16579C6.58267 2.04851 5.22379 3.64071 3.79456 4.99416C2.59445 6.13056 2.01746 7.73392 1.241 9.17749C0.753145 10.0836 0.617111 11.0319 0.79364 12.0505C0.902022 12.6735 1.02374 13.3297 0.939799 13.9437C0.751173 15.3191 1.09879 16.5094 1.92022 17.5828C2.55421 18.4111 3.03292 19.3373 3.61143 20.1949C4.63653 21.7148 6.26573 22.4737 7.88116 23.1566C8.53564 23.4331 9.32202 23.4282 10.0012 23.7175C10.9164 24.1084 11.8085 24.1111 12.6985 23.6541C13.0461 23.4753 13.4128 23.4032 13.807 23.4598C14.4929 23.5583 15.1234 23.3586 15.7064 23.0265C16.5416 22.5505 17.325 21.9686 18.1931 21.5689C18.9767 21.2074 19.5618 20.7018 19.9457 19.9609C20.241 19.3918 20.6177 18.885 21.0199 18.3964C21.3646 17.9779 21.6371 17.5276 21.8087 17.0162C22.0837 16.1983 22.359 15.3803 22.6232 14.5589C22.917 13.643 22.9834 12.7369 22.6388 11.7992C22.4047 11.1612 22.2971 10.4761 22.1339 9.81177L22.1338 9.81174ZM21.6395 11.5153C21.6239 11.8486 21.3997 12.0483 21.0869 12.1276C20.763 12.0848 20.5171 11.898 20.5122 11.6111C20.5062 11.2536 20.7921 11.0015 21.1331 10.981C21.4291 10.963 21.6543 11.1978 21.6395 11.5153L21.6395 11.5153ZM8.44251 2.84181C8.83581 2.8344 9.03159 3.06327 9.13011 3.39336C8.96346 3.77678 8.8573 4.236 8.38399 4.16736C8.06056 4.1202 7.64754 3.85381 7.65196 3.50719C7.65641 3.11933 8.00008 2.85 8.44251 2.84185V2.84181ZM3.35783 7.27815C3.682 7.27148 3.91062 7.38036 3.91383 7.7465C3.91654 8.10573 3.64027 8.25608 3.37166 8.28052C3.04502 8.3099 2.88208 8.04869 2.87294 7.73514C2.86331 7.41888 3.06181 7.28753 3.35784 7.27815H3.35783ZM2.62087 17.5949C2.3525 17.6115 2.2056 17.3515 2.25054 17.076C2.23399 16.7214 2.34041 16.4049 2.68161 16.3681C2.9991 16.3341 3.1339 16.6239 3.15687 16.9251C3.186 17.3135 2.96183 17.573 2.62087 17.5949L2.62087 17.5949ZM9.6049 22.7285C9.26616 22.7083 8.87609 22.7767 8.85852 22.3488C8.84297 21.9679 9.22071 21.8387 9.50611 21.854C9.80262 21.8703 10.2687 21.8817 10.2964 22.2836C10.3275 22.7446 9.86929 22.6703 9.6049 22.7285V22.7285ZM18.8377 19.2044C18.4363 19.198 18.3323 18.9173 18.3178 18.6005C18.3039 18.2991 18.4538 18.1786 18.7886 18.181C19.1458 18.1842 19.3856 18.2257 19.3732 18.6178C19.3873 19.015 19.2177 19.2096 18.8377 19.2044H18.8377ZM19.8665 18.4452C19.5905 17.883 19.172 17.5645 18.5321 17.7576C18.0869 17.8917 17.8635 18.2376 17.883 18.6859C17.9123 19.3644 18.3866 19.633 18.9915 19.7399C18.9359 20.1996 18.6071 20.4386 18.2657 20.5739C17.3522 20.9353 16.5949 21.5434 15.776 22.0532C15.1124 22.4665 14.4299 22.751 13.6145 22.586C13.1434 22.49 12.7311 22.7826 12.2951 22.9077C11.9542 23.005 11.6315 23.1904 11.2618 23.1405C10.8846 23.0892 10.3377 23.2435 10.653 22.4685C10.8152 22.071 10.4651 21.7525 10.0555 21.6365C9.45807 21.4674 8.80582 21.4461 8.51173 22.0636C8.30533 22.4971 8.11399 22.3942 7.82116 22.3199C7.41404 22.2169 7.08591 21.9819 6.77211 21.719C6.55756 21.5385 6.36474 21.2758 6.11738 21.202C4.65061 20.7662 4.10794 19.5017 3.45119 18.3294C3.33095 18.1154 3.27071 17.9435 3.42033 17.7018C3.6687 17.3011 3.59586 16.8584 3.42773 16.4506C3.27565 16.0827 2.91593 15.8082 2.57796 16.021C1.91185 16.4422 1.90616 15.9669 1.7716 15.5605C1.64816 15.1885 1.59878 14.8105 1.65013 14.4308C1.7679 13.5615 1.68099 12.6993 1.54965 11.8458C1.35633 10.5894 1.80839 9.55054 2.52166 8.57233C2.63597 8.41555 2.71201 8.38075 2.88434 8.48888C3.42306 8.82465 3.93138 8.80811 4.22446 8.18743C4.4911 7.62353 4.12471 7.09843 3.36924 6.86337C4.34745 5.28227 5.76113 4.19105 7.37801 3.10129C7.3827 3.77384 7.41875 4.25577 8.00018 4.48982C8.7944 4.80905 9.56769 4.32761 9.4746 3.47438C9.42744 3.04332 9.57582 2.92827 9.9269 2.89222C10.669 2.81469 11.3401 2.47892 12.0568 2.30931C12.3358 2.24314 12.6259 2.18364 12.8802 2.31005C13.1591 2.44905 13.4211 2.61027 13.0384 2.98823C12.3175 3.70098 12.3111 3.92914 12.895 4.82013C13.0174 5.00678 13.0201 5.12479 12.9209 5.29268C12.8695 5.37909 12.8286 5.47611 12.8031 5.5729C12.714 5.91237 12.7222 6.41111 12.9784 6.49062C14.0766 6.83182 13.5554 8.62748 14.9533 8.61932C15.256 8.61784 15.4626 8.65463 15.6317 8.9583C15.9648 9.55652 16.5413 9.58022 17.1027 9.38172C17.3693 9.28765 17.5355 9.1452 17.8396 9.35382C18.3744 9.72021 18.9042 9.61034 19.341 9.12446C19.4563 8.99608 19.54 8.80869 19.7668 8.93411C19.8673 8.93633 19.9683 8.94645 20.0683 8.93979C20.4127 8.91584 20.9452 8.7398 21.0608 8.88918C21.2973 9.19532 21.2761 9.68662 21.4222 10.0792C21.6351 10.6483 21.3168 10.6702 20.9102 10.6413C20.2187 10.9611 19.9967 11.3832 20.2332 11.9272C20.4803 12.496 20.9996 12.6177 21.8755 12.3106C22.3258 13.5551 21.2481 16.8857 19.8663 18.4453L19.8665 18.4452Z" fill="#FF0072"/>
<path fill-rule="evenodd" clip-rule="evenodd" d="M27.0437 11.098C27.158 10.3659 26.6151 10.0139 26.1828 9.60799C25.3044 8.78261 24.6906 8.86433 24.0377 9.87093C23.7864 10.2588 23.7237 10.6736 23.9022 11.1019C24.0424 11.439 24.0432 11.7495 23.9689 12.1174C23.7556 13.1793 23.8351 13.2457 25.0534 13.2457C26.016 13.7111 26.3523 12.6611 26.9335 12.1236C27.2021 11.875 26.9898 11.4417 27.0436 11.098L27.0437 11.098ZM26.2568 11.1419C26.2477 11.2528 26.1973 11.3582 26.0855 11.3582C25.5179 11.3572 25.5648 11.7127 25.6608 12.084C25.7719 12.5126 25.4707 12.4645 25.2258 12.4837C24.8412 12.5146 24.6121 12.444 24.8236 11.9823C24.974 11.6532 24.8377 11.3327 24.6923 11.032C24.4923 10.6192 24.6283 10.3017 24.9419 10.0158C25.1234 9.84992 25.3107 9.82178 25.4764 10.001C25.7912 10.3412 26.3055 10.5518 26.2569 11.1419L26.2568 11.1419Z" fill="#FF0072"/>
<path fill-rule="evenodd" clip-rule="evenodd" d="M34.57 17.2778C34.029 17.1586 33.4728 17.1065 32.9237 17.0245C32.1717 16.9855 32.1749 16.9848 32.3457 17.721C32.3798 17.8677 32.3889 18.022 32.3941 18.1731C32.4262 19.0846 32.8375 19.41 33.7416 19.1794C34.211 19.0594 34.6279 18.8007 34.9517 18.433C35.4116 17.9101 35.2605 17.4307 34.57 17.2779V17.2778ZM33.2405 18.3654C33.1533 18.3296 33.0657 18.0202 33.1109 17.9775C33.4422 17.665 33.7402 18.1091 34.2208 17.9173C33.8574 18.3276 33.588 18.5069 33.2404 18.3654L33.2405 18.3654Z" fill="#FF0072"/>
<path fill-rule="evenodd" clip-rule="evenodd" d="M33.5845 11.5257C33.5855 10.8724 32.7241 9.73548 32.2073 9.70805C32.0288 9.69892 31.0383 11.1314 31.0484 11.3849C31.0647 11.8012 32.1325 12.6455 32.6354 12.6396C33.2709 12.6332 33.5837 12.2653 33.5845 11.5257ZM32.5846 11.796C32.3288 11.7429 32.0009 11.6269 31.9765 11.3225C31.9604 11.1252 32.1567 10.8146 32.3555 10.8181C32.6633 10.8238 32.7794 11.125 32.8132 11.4123C32.7838 11.5817 32.8606 11.8535 32.5846 11.796V11.796Z" fill="#FF0072"/>
<path fill-rule="evenodd" clip-rule="evenodd" d="M31.948 8.61343C31.9717 8.13743 32.1613 7.66885 32.0132 7.18471C31.7937 6.46703 31.1421 6.19962 30.555 6.14482C30.0598 6.0984 30.323 6.78476 30.1477 7.1131C30.0274 7.339 30.0773 7.65576 30.0356 8.09693C29.7492 8.61861 30.2568 8.65293 30.6992 8.71959C30.9982 8.76527 31.3016 8.7865 31.6038 8.80427C31.7485 8.81217 31.9371 8.82995 31.948 8.61343L31.948 8.61343ZM31.0184 7.95744C30.851 7.9572 30.8587 7.79499 30.8582 7.67574C30.8575 7.53032 30.8444 7.35503 31.0372 7.31825C31.2429 7.27899 31.2806 7.43231 31.2942 7.59427C31.2819 7.77598 31.2434 7.95745 31.0184 7.95745L31.0184 7.95744Z" fill="#FF0072"/>
<path fill-rule="evenodd" clip-rule="evenodd" d="M24.1274 4.76394C24.4105 4.69135 24.6626 4.53532 24.8579 4.31336C25.1354 3.99809 25.0441 3.70848 24.6276 3.61616C24.3009 3.54407 23.9654 3.51272 23.6334 3.46284C23.1796 3.43988 23.1818 3.43939 23.2848 3.88329C23.3053 3.97217 23.3107 4.06525 23.3139 4.15611C23.3329 4.70717 23.5818 4.90318 24.1274 4.76395L24.1274 4.76394ZM23.7469 4.03855C23.9466 3.85017 24.1264 4.11829 24.417 4.00201C24.198 4.24939 24.035 4.35778 23.8252 4.27235C23.7724 4.25136 23.7198 4.06447 23.7469 4.03855L23.7469 4.03855Z" fill="#FF0072"/>
<path fill-rule="evenodd" clip-rule="evenodd" d="M20.4423 2.41489C20.7998 2.41094 20.9756 2.20355 20.9761 1.78779C20.9764 1.42041 20.492 0.780445 20.2014 0.765655C20.1011 0.759976 19.5442 1.56632 19.5494 1.70904C19.5585 1.94284 20.1597 2.41812 20.4424 2.4149L20.4423 2.41489ZM20.2848 1.38953C20.4579 1.39274 20.5233 1.56187 20.5421 1.72432C20.5255 1.81912 20.5687 1.97269 20.4139 1.93986C20.27 1.91048 20.0851 1.84456 20.0718 1.67396C20.0626 1.56261 20.1722 1.38757 20.2848 1.38954V1.38953Z" fill="#FF0072"/>
<path fill-rule="evenodd" clip-rule="evenodd" d="M15.8676 6.56685C16.0276 6.59055 16.1901 6.60215 16.3515 6.61178C16.429 6.61598 16.53 6.62586 16.5359 6.50982C16.549 6.25503 16.65 6.00443 16.571 5.74518C16.4535 5.36126 16.1049 5.21807 15.7901 5.18869C15.5255 5.164 15.6662 5.53088 15.5724 5.70691C15.5079 5.82764 15.5346 5.99675 15.5121 6.23327C15.3595 6.51251 15.6309 6.53053 15.8676 6.56682L15.8676 6.56685ZM16.0488 5.81706C16.1589 5.79583 16.1792 5.87804 16.1866 5.9647C16.1799 6.06173 16.1594 6.159 16.039 6.159C15.9498 6.159 15.9538 6.07234 15.953 6.00815C15.953 5.93063 15.9456 5.83657 16.0488 5.81706Z" fill="#FF0072"/>
<path fill-rule="evenodd" clip-rule="evenodd" d="M17.3783 13.9052C16.6712 13.9319 16.1409 14.4805 16.145 15.1809C16.1497 15.9327 16.8062 16.5267 17.6064 16.5023C18.2167 16.4845 18.769 15.8702 18.7557 15.2241C18.7404 14.4782 18.1123 13.8775 17.3783 13.9052ZM17.4281 16.0707C16.9524 16.0468 16.4747 15.7399 16.5075 15.1624C16.5354 14.6775 16.8112 14.299 17.5133 14.3052C17.916 14.3388 18.2649 14.598 18.2955 15.1355C18.3298 15.7182 17.9669 16.0986 17.4281 16.0708V16.0707Z" fill="#FF0072"/>
<path fill-rule="evenodd" clip-rule="evenodd" d="M11.7525 8.09127C11.771 7.23258 11.1151 6.54941 10.2875 6.56572C9.54311 6.58028 8.95278 7.18936 8.94634 7.94855C8.93992 8.74277 9.5895 9.41311 10.3795 9.4274C11.1394 9.44172 11.7367 8.86004 11.7525 8.0912V8.09127ZM9.28682 7.97893C9.28459 7.42787 9.73986 6.97905 10.3146 6.96622C10.8477 6.95412 11.4036 7.48888 11.4123 8.02191C11.4202 8.49891 10.8714 9.04133 10.3593 9.06351C9.81789 9.08697 9.28878 8.55221 9.28682 7.97893Z" fill="#FF0072"/>
<path fill-rule="evenodd" clip-rule="evenodd" d="M11.3602 13.9047C10.7913 13.9242 10.3576 14.4856 10.3511 15.2093C10.3447 15.9633 10.8565 16.585 11.4812 16.5825C11.988 16.58 12.445 15.9779 12.4381 15.3207C12.4305 14.5311 11.9382 13.8845 11.3602 13.9048V13.9047ZM11.3649 16.1139C10.9128 16.1065 10.6775 15.6944 10.7388 15.2525C10.7983 14.8224 10.8447 14.2743 11.4903 14.3301C11.9619 14.3715 11.891 14.8288 12.0085 15.152C11.758 15.4638 11.9604 16.1232 11.3649 16.1139Z" fill="#FF0072"/>
<path fill-rule="evenodd" clip-rule="evenodd" d="M4.70874 11.087C3.98461 11.0796 3.41502 11.6529 3.41553 12.3903C3.41553 13.1265 4.03176 13.7168 4.79565 13.7134C5.46251 13.711 5.99159 13.1826 6.00859 12.5027C6.02661 11.7529 5.42272 11.0947 4.70874 11.087V11.087ZM4.63492 13.3561C4.16854 13.2598 3.82781 12.9349 3.78192 12.4253C3.73773 11.9315 4.24484 11.3822 4.71001 11.4212C5.27168 11.4686 5.55213 11.8227 5.60472 12.3014C5.61311 12.8011 5.03761 13.4398 4.63492 13.3561Z" fill="#FF0072"/>
<path fill-rule="evenodd" clip-rule="evenodd" d="M14.6935 18.8674C13.9187 18.8097 13.3452 19.2975 13.3077 20.046C13.2731 20.7423 13.8407 21.3393 14.5755 21.379C15.2645 21.4163 15.8146 20.9494 15.867 20.2836C15.9247 19.5523 15.4013 18.921 14.6935 18.8674H14.6935ZM14.5853 21.0102C14.1138 20.9887 13.7108 20.7304 13.7177 20.148C13.7249 19.5772 14.011 19.2116 14.5838 19.2217C15.1146 19.2313 15.3714 19.5997 15.4158 20.1261C15.3684 20.6386 15.1188 21.0339 14.5853 21.0102H14.5853Z" fill="#FF0072"/>
<path fill-rule="evenodd" clip-rule="evenodd" d="M8.35942 16.438C7.75281 16.438 7.40915 16.7688 7.34942 17.352C7.29288 17.902 7.81481 18.4173 8.40834 18.419C8.97742 18.4208 9.27518 18.0981 9.34552 17.6818C9.34454 16.8898 8.94853 16.438 8.35942 16.438ZM8.33646 17.9771C7.97131 18.0001 7.75059 17.849 7.75355 17.4596C7.75626 17.0431 7.95624 16.7733 8.38634 16.7763C8.73718 16.7795 8.91691 17.0195 8.9732 17.3589C8.92481 17.7362 8.72311 17.9532 8.33649 17.9772L8.33646 17.9771Z" fill="#FF0072"/>
<path fill-rule="evenodd" clip-rule="evenodd" d="M14.7332 12.7712C15.3023 12.7866 15.5346 12.4204 15.5699 11.9716C15.5529 11.3563 15.0991 10.9031 14.5856 10.9445C14.0491 10.987 13.7212 11.3141 13.7343 11.8353C13.7491 12.4313 14.1478 12.7555 14.7332 12.7713V12.7712ZM14.6038 11.3052C14.9181 11.284 15.1532 11.5025 15.184 11.7998C15.2186 12.135 14.9487 12.2656 14.6925 12.3165C14.2955 12.3246 14.1286 12.0829 14.1123 11.7951C14.0965 11.5114 14.3374 11.3228 14.6038 11.3052Z" fill="#FF0072"/>
<path d="M22.1426 36.6656C20.0426 36.6656 18.1526 36.2265 16.4726 35.3483C14.8117 34.451 13.504 33.2101 12.5495 31.6256C11.5949 30.0411 11.1177 28.2465 11.1177 26.242C11.1177 24.2375 11.5949 22.443 12.5495 20.8584C13.504 19.2739 14.8117 18.0425 16.4726 17.1644C18.1526 16.2671 20.0426 15.8185 22.1426 15.8185C23.9753 15.8185 25.6266 16.143 27.0966 16.7921C28.5666 17.4412 29.7884 18.3766 30.762 19.5984L27.1539 22.863C25.8557 21.2975 24.2807 20.5148 22.4289 20.5148C21.3408 20.5148 20.3671 20.7534 19.508 21.2307C18.6681 21.708 18.0094 22.3857 17.5322 23.2639C17.074 24.1229 16.8449 25.1157 16.8449 26.242C16.8449 27.3684 17.074 28.3706 17.5322 29.2488C18.0094 30.1079 18.6681 30.7761 19.508 31.2533C20.3671 31.7306 21.3408 31.9692 22.4289 31.9692C24.2807 31.9692 25.8557 31.1865 27.1539 29.6211L30.762 32.8856C29.7884 34.1074 28.5666 35.0428 27.0966 35.6919C25.6266 36.341 23.9753 36.6656 22.1426 36.6656ZM39.7732 36.5224C38.1123 36.5224 36.6137 36.1787 35.2774 35.4915C33.941 34.8042 32.891 33.8497 32.1274 32.6279C31.3829 31.4061 31.0106 30.022 31.0106 28.4756C31.0106 26.9484 31.3829 25.5738 32.1274 24.352C32.891 23.1302 33.9315 22.1852 35.2487 21.5171C36.5851 20.8298 38.0933 20.4862 39.7732 20.4862C41.4532 20.4862 42.9614 20.8298 44.2977 21.5171C45.6341 22.1852 46.6745 23.1302 47.4191 24.352C48.1636 25.5547 48.5359 26.9293 48.5359 28.4756C48.5359 30.022 48.1636 31.4061 47.4191 32.6279C46.6745 33.8497 45.6341 34.8042 44.2977 35.4915C42.9614 36.1787 41.4532 36.5224 39.7732 36.5224ZM39.7732 32.1983C40.7278 32.1983 41.5105 31.8738 42.1214 31.2247C42.7323 30.5565 43.0378 29.6402 43.0378 28.4756C43.0378 27.3302 42.7323 26.4329 42.1214 25.7838C41.5105 25.1348 40.7278 24.8102 39.7732 24.8102C38.8187 24.8102 38.036 25.1348 37.4251 25.7838C36.8142 26.4329 36.5087 27.3302 36.5087 28.4756C36.5087 29.6402 36.8142 30.5565 37.4251 31.2247C38.036 31.8738 38.8187 32.1983 39.7732 32.1983ZM58.2726 36.5224C56.6117 36.5224 55.1131 36.1787 53.7767 35.4915C52.4404 34.8042 51.3904 33.8497 50.6268 32.6279C49.8822 31.4061 49.51 30.022 49.51 28.4756C49.51 26.9484 49.8822 25.5738 50.6268 24.352C51.3904 23.1302 52.4308 22.1852 53.7481 21.5171C55.0845 20.8298 56.5926 20.4862 58.2726 20.4862C59.9526 20.4862 61.4608 20.8298 62.7971 21.5171C64.1335 22.1852 65.1739 23.1302 65.9184 24.352C66.663 25.5547 67.0353 26.9293 67.0353 28.4756C67.0353 30.022 66.663 31.4061 65.9184 32.6279C65.1739 33.8497 64.1335 34.8042 62.7971 35.4915C61.4608 36.1787 59.9526 36.5224 58.2726 36.5224ZM58.2726 32.1983C59.2271 32.1983 60.0099 31.8738 60.6208 31.2247C61.2317 30.5565 61.5371 29.6402 61.5371 28.4756C61.5371 27.3302 61.2317 26.4329 60.6208 25.7838C60.0099 25.1348 59.2271 24.8102 58.2726 24.8102C57.3181 24.8102 56.5353 25.1348 55.9244 25.7838C55.3135 26.4329 55.0081 27.3302 55.0081 28.4756C55.0081 29.6402 55.3135 30.5565 55.9244 31.2247C56.5353 31.8738 57.3181 32.1983 58.2726 32.1983ZM76.0274 30.8238L74.4238 32.456V36.2646H68.983V15.0167H74.4238V26.1561L79.9792 20.7439H86.4223L79.9792 27.3875L86.9664 36.2646H80.3801L76.0274 30.8238ZM87.9857 20.7439H93.4265V36.2646H87.9857V20.7439ZM90.7061 19.0257C89.7134 19.0257 88.9116 18.7489 88.3007 18.1953C87.6898 17.6416 87.3843 16.9544 87.3843 16.1335C87.3843 15.3126 87.6898 14.6253 88.3007 14.0717C88.9116 13.518 89.7134 13.2412 90.7061 13.2412C91.6988 13.2412 92.5006 13.5085 93.1115 14.043C93.7225 14.5585 94.0279 15.2267 94.0279 16.0476C94.0279 16.9066 93.7225 17.6225 93.1115 18.1953C92.5006 18.7489 91.6988 19.0257 90.7061 19.0257ZM112.254 28.5329C112.254 28.5711 112.225 29.0197 112.168 29.8788H100.886C101.115 30.6806 101.554 31.3011 102.203 31.7401C102.871 32.1601 103.701 32.3701 104.694 32.3701C105.439 32.3701 106.078 32.2651 106.613 32.0551C107.166 31.8451 107.72 31.5015 108.274 31.0242L111.137 34.0024C109.629 35.6824 107.424 36.5224 104.522 36.5224C102.709 36.5224 101.115 36.1787 99.7401 35.4915C98.3656 34.8042 97.2965 33.8497 96.5329 32.6279C95.7884 31.4061 95.4161 30.022 95.4161 28.4756C95.4161 26.9484 95.7788 25.5834 96.5043 24.3807C97.2488 23.1589 98.2702 22.2043 99.5683 21.5171C100.866 20.8298 102.327 20.4862 103.95 20.4862C105.496 20.4862 106.899 20.8107 108.159 21.4598C109.419 22.0898 110.412 23.0157 111.137 24.2375C111.882 25.4402 112.254 26.872 112.254 28.5329ZM103.978 24.352C103.138 24.352 102.432 24.5907 101.859 25.0679C101.306 25.5452 100.952 26.1943 100.8 27.0152H107.157C107.004 26.1943 106.641 25.5452 106.069 25.0679C105.515 24.5907 104.818 24.352 103.978 24.352ZM123.611 16.2194C125.425 16.2194 127 16.5248 128.336 17.1357C129.673 17.7275 130.703 18.5866 131.429 19.713C132.154 20.8202 132.517 22.128 132.517 23.6361C132.517 25.1443 132.154 26.452 131.429 27.5593C130.703 28.6665 129.673 29.5256 128.336 30.1365C127 30.7283 125.425 31.0242 123.611 31.0242H120.118V36.2646H114.448V16.2194H123.611ZM123.268 26.557C124.432 26.557 125.31 26.3088 125.902 25.8125C126.494 25.297 126.79 24.5716 126.79 23.6361C126.79 22.7007 126.494 21.9752 125.902 21.4598C125.31 20.9443 124.432 20.6866 123.268 20.6866H120.118V26.557H123.268ZM134.591 20.7439H140.032V36.2646H134.591V20.7439ZM137.311 19.0257C136.319 19.0257 135.517 18.7489 134.906 18.1953C134.295 17.6416 133.99 16.9544 133.99 16.1335C133.99 15.3126 134.295 14.6253 134.906 14.0717C135.517 13.518 136.319 13.2412 137.311 13.2412C138.304 13.2412 139.106 13.5085 139.717 14.043C140.328 14.5585 140.633 15.2267 140.633 16.0476C140.633 16.9066 140.328 17.6225 139.717 18.1953C139.106 18.7489 138.304 19.0257 137.311 19.0257Z" fill="white"/>
</svg>
