<svg width="19" height="19" viewBox="0 0 19 19" fill="none" xmlns="http://www.w3.org/2000/svg">
<g clip-path="url(#clip0_990_573)">
<path d="M7.56504 8.39746C7.04082 8.39746 6.62695 8.85731 6.62695 9.41832C6.62695 9.97934 7.05001 10.4392 7.56504 10.4392C8.08927 10.4392 8.50313 9.97934 8.50313 9.41832C8.51233 8.85731 8.08927 8.39746 7.56504 8.39746ZM10.9219 8.39746C10.3977 8.39746 9.98385 8.85731 9.98385 9.41832C9.98385 9.97934 10.4069 10.4392 10.9219 10.4392C11.4462 10.4392 11.86 9.97934 11.86 9.41832C11.86 8.85731 11.4462 8.39746 10.9219 8.39746Z" fill="white"/>
<path d="M15.4046 0.681152H3.08069C2.04143 0.681152 1.19531 1.52727 1.19531 2.57573V15.01C1.19531 16.0585 2.04143 16.9046 3.08069 16.9046H13.5101L13.0226 15.2032L14.1998 16.2976L15.3127 17.3277L17.29 19.0751V2.57573C17.29 1.52727 16.4439 0.681152 15.4046 0.681152ZM11.8546 12.6924C11.8546 12.6924 11.5235 12.2969 11.2476 11.9474C12.4524 11.6071 12.9122 10.853 12.9122 10.853C12.5352 11.1013 12.1765 11.2761 11.8546 11.3956C11.3947 11.5888 10.9533 11.7175 10.521 11.7911C9.63813 11.9566 8.8288 11.9106 8.13902 11.7819C7.6148 11.6807 7.16415 11.5336 6.78707 11.3864C6.57554 11.3036 6.34561 11.2025 6.11569 11.0737C6.0881 11.0553 6.06051 11.0461 6.03292 11.0277C6.01452 11.0185 6.00533 11.0093 5.99613 11.0001C5.83058 10.9082 5.73862 10.8438 5.73862 10.8438C5.73862 10.8438 6.18007 11.5796 7.34808 11.929C7.07218 12.2785 6.73189 12.6924 6.73189 12.6924C4.69936 12.628 3.92681 11.2945 3.92681 11.2945C3.92681 8.33303 5.25118 5.93262 5.25118 5.93262C6.57554 4.93935 7.83552 4.96694 7.83552 4.96694L7.92749 5.0773C6.27204 5.55554 5.50869 6.2821 5.50869 6.2821C5.50869 6.2821 5.71102 6.17174 6.05131 6.01539C7.03539 5.58314 7.81713 5.46357 8.13902 5.43598C8.19421 5.42679 8.24019 5.41759 8.29537 5.41759C8.85639 5.34401 9.49098 5.32562 10.1532 5.3992C11.0269 5.50036 11.965 5.75788 12.9214 6.2821C12.9214 6.2821 12.1949 5.59233 10.6314 5.11409L10.7602 4.96694C10.7602 4.96694 12.0201 4.93935 13.3445 5.93262C13.3445 5.93262 14.6689 8.33303 14.6689 11.2945C14.6689 11.2945 13.8871 12.628 11.8546 12.6924V12.6924Z" fill="white"/>
</g>
<defs>
<clipPath id="clip0_990_573">
<rect width="18" height="18" fill="white" transform="translate(0.242188 0.878174)"/>
</clipPath>
</defs>
</svg>
