<svg width="19" height="20" viewBox="0 0 19 20" fill="none" xmlns="http://www.w3.org/2000/svg">
<g opacity="0.3">
<path d="M7.59931 8.35571C7.03301 8.35571 6.58594 8.85246 6.58594 9.4585C6.58594 10.0645 7.04295 10.5613 7.59931 10.5613C8.1656 10.5613 8.61268 10.0645 8.61268 9.4585C8.62261 8.85246 8.1656 8.35571 7.59931 8.35571ZM11.2256 8.35571C10.6593 8.35571 10.2122 8.85246 10.2122 9.4585C10.2122 10.0645 10.6692 10.5613 11.2256 10.5613C11.7919 10.5613 12.239 10.0645 12.239 9.4585C12.239 8.85246 11.7919 8.35571 11.2256 8.35571Z" fill="#FCFCFC"/>
<path d="M16.0693 0.0187988H2.7564C1.63375 0.0187988 0.719727 0.932819 0.719727 2.06541V15.4975C0.719727 16.6301 1.63375 17.5441 2.7564 17.5441H14.0227L13.4961 15.7062L14.7678 16.8884L15.97 18.0012L18.106 19.8888V2.06541C18.106 0.932819 17.192 0.0187988 16.0693 0.0187988ZM12.2344 12.9939C12.2344 12.9939 11.8767 12.5667 11.5787 12.1892C12.8802 11.8216 13.3769 11.0069 13.3769 11.0069C12.9696 11.2752 12.5821 11.4639 12.2344 11.5931C11.7377 11.8017 11.2608 11.9408 10.7938 12.0203C9.84006 12.1991 8.96578 12.1494 8.22066 12.0104C7.65436 11.9011 7.16755 11.7421 6.76021 11.5831C6.53171 11.4937 6.28333 11.3844 6.03496 11.2454C6.00515 11.2255 5.97535 11.2156 5.94554 11.1957C5.92567 11.1857 5.91574 11.1758 5.9058 11.1659C5.72697 11.0665 5.62762 10.997 5.62762 10.997C5.62762 10.997 6.1045 11.7918 7.36625 12.1693C7.0682 12.5468 6.7006 12.9939 6.7006 12.9939C4.50496 12.9244 3.67042 11.4838 3.67042 11.4838C3.67042 8.28472 5.10107 5.69169 5.10107 5.69169C6.53171 4.61871 7.8928 4.64851 7.8928 4.64851L7.99215 4.76773C6.20385 5.28435 5.37925 6.06922 5.37925 6.06922C5.37925 6.06922 5.59782 5.95 5.96541 5.7811C7.02846 5.31416 7.87293 5.185 8.22066 5.1552C8.28027 5.14526 8.32994 5.13533 8.38955 5.13533C8.99559 5.05585 9.6811 5.03598 10.3964 5.11546C11.3403 5.22474 12.3536 5.50292 13.3869 6.06922C13.3869 6.06922 12.602 5.32409 10.913 4.80747L11.0521 4.64851C11.0521 4.64851 12.4132 4.61871 13.8439 5.69169C13.8439 5.69169 15.2745 8.28472 15.2745 11.4838C15.2745 11.4838 14.43 12.9244 12.2344 12.9939Z" fill="#FCFCFC"/>
</g>
</svg>
