<svg width="19" height="19" viewBox="0 0 19 19" fill="none" xmlns="http://www.w3.org/2000/svg">
<g clip-path="url(#clip0_710_436)">
<g opacity="0.3">
<path d="M7.70624 7.57715C7.19324 7.57715 6.78824 8.02715 6.78824 8.57615C6.78824 9.12515 7.20224 9.57515 7.70624 9.57515C8.21924 9.57515 8.62424 9.12515 8.62424 8.57615C8.63324 8.02715 8.21924 7.57715 7.70624 7.57715ZM10.9912 7.57715C10.4782 7.57715 10.0732 8.02715 10.0732 8.57615C10.0732 9.12515 10.4872 9.57515 10.9912 9.57515C11.5042 9.57515 11.9092 9.12515 11.9092 8.57615C11.9092 8.02715 11.5042 7.57715 10.9912 7.57715Z" fill="#FCFCFC"/>
<path d="M15.3793 0.0249023H3.31926C2.30226 0.0249023 1.47426 0.852902 1.47426 1.8789V14.0469C1.47426 15.0729 2.30226 15.9009 3.31926 15.9009H13.5253L13.0483 14.2359L14.2003 15.3069L15.2893 16.3149L17.2243 18.0249V1.8789C17.2243 0.852902 16.3963 0.0249023 15.3793 0.0249023ZM11.9053 11.7789C11.9053 11.7789 11.5813 11.3919 11.3113 11.0499C12.4903 10.7169 12.9403 9.9789 12.9403 9.9789C12.5713 10.2219 12.2203 10.3929 11.9053 10.5099C11.4553 10.6989 11.0233 10.8249 10.6003 10.8969C9.73626 11.0589 8.94426 11.0139 8.26926 10.8879C7.75626 10.7889 7.31526 10.6449 6.94626 10.5009C6.73926 10.4199 6.51426 10.3209 6.28926 10.1949C6.26226 10.1769 6.23526 10.1679 6.20826 10.1499C6.19026 10.1409 6.18126 10.1319 6.17226 10.1229C6.01026 10.0329 5.92026 9.9699 5.92026 9.9699C5.92026 9.9699 6.35226 10.6899 7.49526 11.0319C7.22526 11.3739 6.89226 11.7789 6.89226 11.7789C4.90326 11.7159 4.14726 10.4109 4.14726 10.4109C4.14726 7.5129 5.44326 5.1639 5.44326 5.1639C6.73926 4.1919 7.97226 4.2189 7.97226 4.2189L8.06226 4.3269C6.44226 4.7949 5.69526 5.5059 5.69526 5.5059C5.69526 5.5059 5.89326 5.3979 6.22626 5.2449C7.18926 4.8219 7.95426 4.7049 8.26926 4.6779C8.32326 4.6689 8.36826 4.6599 8.42226 4.6599C8.97126 4.5879 9.59226 4.5699 10.2403 4.6419C11.0953 4.7409 12.0133 4.9929 12.9493 5.5059C12.9493 5.5059 12.2383 4.8309 10.7083 4.3629L10.8343 4.2189C10.8343 4.2189 12.0673 4.1919 13.3633 5.1639C13.3633 5.1639 14.6593 7.5129 14.6593 10.4109C14.6593 10.4109 13.8943 11.7159 11.9053 11.7789Z" fill="#FCFCFC"/>
</g>
</g>
<defs>
<clipPath id="clip0_710_436">
<rect width="18" height="18" fill="white" transform="translate(0.349258 0.0249023)"/>
</clipPath>
</defs>
</svg>
