<svg width="19" height="15" viewBox="0 0 19 15" fill="none" xmlns="http://www.w3.org/2000/svg">
<g opacity="0.3">
<path opacity="0.7" d="M18.4503 4.16174L16.2637 5.36435L14.0771 7.44158V14.5697H17.1383C17.8629 14.5697 18.4503 13.9824 18.4503 13.2578V4.16174Z" fill="#FCFCFC"/>
<path opacity="0.7" d="M0.0839844 4.16174L1.66443 4.90954L4.45709 7.44158V14.5697H1.39592C0.671293 14.5697 0.0839844 13.9824 0.0839844 13.2578V4.16174Z" fill="#FCFCFC"/>
<path d="M14.0782 1.97546L9.26775 5.58328L4.45733 1.97546L4.02002 4.51187L4.45733 7.44185L9.26775 11.0497L14.0782 7.44185L14.5155 4.51187L14.0782 1.97546Z" fill="#FCFCFC"/>
<path d="M0.0839844 2.45573V4.16212L4.45709 7.44195V1.97557L3.09094 0.951822C2.76558 0.707803 2.37025 0.576172 1.96355 0.576172C0.925371 0.576172 0.0839844 1.41756 0.0839844 2.45573Z" fill="#FCFCFC"/>
<path d="M18.4503 2.45573V4.16212L14.0771 7.44195V1.97557L15.4433 0.951822C15.7687 0.707803 16.164 0.576172 16.5707 0.576172C17.6089 0.576172 18.4503 1.41756 18.4503 2.45573Z" fill="#FCFCFC"/>
</g>
</svg>
