<svg width="18" height="18" viewBox="0 0 18 18" fill="none" xmlns="http://www.w3.org/2000/svg">
<path opacity="0.7" d="M17.5014 5.84277L15.4772 6.95604L13.4531 8.87896V15.4776H16.2869C16.9577 15.4776 17.5014 14.9339 17.5014 14.2631V5.84277Z" fill="white"/>
<path opacity="0.7" d="M0.498047 5.84277L1.96108 6.53502L4.54629 8.87896V15.4776H1.71252C1.04173 15.4776 0.498047 14.9339 0.498047 14.2631V5.84277Z" fill="white"/>
<path d="M13.4516 3.81836L8.99852 7.15816L4.54545 3.81836L4.14062 6.16634L4.54545 8.87867L8.99852 12.2185L13.4516 8.87867L13.8564 6.16634L13.4516 3.81836Z" fill="white"/>
<path d="M0.498047 4.2624V5.84202L4.54629 8.87821V3.8179L3.28162 2.87021C2.98043 2.64431 2.61447 2.52246 2.23798 2.52246C1.27693 2.52246 0.498047 3.30134 0.498047 4.2624Z" fill="white"/>
<path d="M17.5014 4.2624V5.84202L13.4531 8.87821V3.8179L14.7178 2.87021C15.019 2.64431 15.3849 2.52246 15.7614 2.52246C16.7225 2.52246 17.5014 3.30134 17.5014 4.2624Z" fill="white"/>
</svg>
