<svg width="19" height="19" viewBox="0 0 19 19" fill="none" xmlns="http://www.w3.org/2000/svg">
<g clip-path="url(#clip0_710_442)">
<g opacity="0.3">
<path opacity="0.7" d="M18.4234 6.39624L16.2918 7.56863L14.1602 9.59366V16.5427H17.1444C17.8508 16.5427 18.4234 15.9702 18.4234 15.2637V6.39624Z" fill="#FCFCFC"/>
<path opacity="0.7" d="M0.519531 6.39624L2.06026 7.12525L4.78276 9.59366V16.5427H1.7985C1.09208 16.5427 0.519531 15.9702 0.519531 15.2637V6.39624Z" fill="#FCFCFC"/>
<path d="M14.1628 4.26489L9.47329 7.78205L4.78374 4.26489L4.35742 6.73756L4.78374 9.59392L9.47329 13.1111L14.1628 9.59392L14.5892 6.73756L14.1628 4.26489Z" fill="#FCFCFC"/>
<path d="M0.519531 4.73297V6.39648L4.78276 9.5939V4.26487L3.45092 3.26685C3.13374 3.02896 2.74834 2.90063 2.35186 2.90063C1.33978 2.90063 0.519531 3.72088 0.519531 4.73297Z" fill="#FCFCFC"/>
<path d="M18.4234 4.73297V6.39648L14.1602 9.5939V4.26487L15.492 3.26685C15.8092 3.02896 16.1946 2.90063 16.591 2.90063C17.6031 2.90063 18.4234 3.72088 18.4234 4.73297Z" fill="#FCFCFC"/>
</g>
</g>
<defs>
<clipPath id="clip0_710_442">
<rect width="18" height="18" fill="white" transform="translate(0.472656 0.72168)"/>
</clipPath>
</defs>
</svg>
