<svg width="19" height="19" viewBox="0 0 19 19" fill="none" xmlns="http://www.w3.org/2000/svg">
<g clip-path="url(#clip0_710_434)">
<g opacity="0.3">
<path d="M13.3894 0.685547H5.0652C2.51825 0.685547 0.418575 2.8225 0.418575 5.41914V13.5445C0.418575 16.1536 2.50582 18.2781 5.0652 18.2781H13.3894C15.9363 18.2781 18.036 16.1412 18.036 13.5445V5.41914C18.036 2.8225 15.9363 0.685547 13.3894 0.685547ZM16.4581 13.4327C16.4581 15.2342 15.0169 16.7127 13.2403 16.7127H5.21429C3.45006 16.7127 1.99643 15.2342 1.99643 13.4327V5.54338C1.99643 3.74188 3.43764 2.26341 5.21429 2.26341H13.2403C15.0045 2.26341 16.4581 3.74188 16.4581 5.54338V13.4327Z" fill="#FCFCFC"/>
<path d="M9.22786 4.97168C6.78031 4.97168 4.80487 6.99681 4.80487 9.49407C4.80487 11.9913 6.79273 14.0165 9.22786 14.0165C11.663 14.0165 13.6509 11.9913 13.6509 9.49407C13.6509 6.99681 11.6754 4.97168 9.22786 4.97168ZM9.22786 12.4137C7.65 12.4137 6.37031 11.1092 6.37031 9.49407C6.37031 7.87893 7.65 6.57439 9.22786 6.57439C10.8057 6.57439 12.0854 7.87893 12.0854 9.49407C12.0854 11.0968 10.8057 12.4137 9.22786 12.4137Z" fill="#FCFCFC"/>
<path d="M13.8865 5.73971C14.4354 5.73971 14.8804 5.28359 14.8804 4.72093C14.8804 4.15827 14.4354 3.70215 13.8865 3.70215C13.3375 3.70215 12.8925 4.15827 12.8925 4.72093C12.8925 5.28359 13.3375 5.73971 13.8865 5.73971Z" fill="#FCFCFC"/>
</g>
</g>
<defs>
<clipPath id="clip0_710_434">
<rect width="18" height="18" fill="white" transform="translate(0.227264 0.481934)"/>
</clipPath>
</defs>
</svg>
