<svg width="18" height="18" viewBox="0 0 18 18" fill="none" xmlns="http://www.w3.org/2000/svg">
<g opacity="0.3">
<path d="M13.2979 0.130859H4.97377C2.42682 0.130859 0.327148 2.26781 0.327148 4.86445V12.9898C0.327148 15.5989 2.4144 17.7234 4.97377 17.7234H13.2979C15.8449 17.7234 17.9446 15.5865 17.9446 12.9898V4.86445C17.9446 2.26781 15.8449 0.130859 13.2979 0.130859ZM16.3667 12.878C16.3667 14.6795 14.9255 16.158 13.1488 16.158H5.12286C3.35863 16.158 1.90501 14.6795 1.90501 12.878V4.98869C1.90501 3.18719 3.34621 1.70872 5.12286 1.70872H13.1488C14.9131 1.70872 16.3667 3.18719 16.3667 4.98869V12.878Z" fill="#FCFCFC"/>
<path d="M9.13637 4.41711C6.68881 4.41711 4.71338 6.44225 4.71338 8.9395C4.71338 11.4368 6.70124 13.4619 9.13637 13.4619C11.5715 13.4619 13.5594 11.4368 13.5594 8.9395C13.5594 6.44225 11.5839 4.41711 9.13637 4.41711ZM9.13637 11.8592C7.5585 11.8592 6.27882 10.5546 6.27882 8.9395C6.27882 7.32436 7.5585 6.01983 9.13637 6.01983C10.7142 6.01983 11.9939 7.32436 11.9939 8.9395C11.9939 10.5422 10.7142 11.8592 9.13637 11.8592Z" fill="#FCFCFC"/>
<path d="M13.7952 5.1849C14.3442 5.1849 14.7892 4.72878 14.7892 4.16612C14.7892 3.60346 14.3442 3.14734 13.7952 3.14734C13.2463 3.14734 12.8013 3.60346 12.8013 4.16612C12.8013 4.72878 13.2463 5.1849 13.7952 5.1849Z" fill="#FCFCFC"/>
</g>
</svg>
