<svg width="18" height="18" viewBox="0 0 18 18" fill="none" xmlns="http://www.w3.org/2000/svg">
<path d="M12.8529 0.857178H5.14714C2.7894 0.857178 0.845703 2.83538 0.845703 5.23913V12.7609C0.845703 15.1762 2.7779 17.1429 5.14714 17.1429H12.8529C15.2107 17.1429 17.1544 15.1647 17.1544 12.7609V5.23913C17.1544 2.83538 15.2107 0.857178 12.8529 0.857178ZM15.6937 12.6574C15.6937 14.3251 14.3596 15.6937 12.7149 15.6937H5.28516C3.65199 15.6937 2.30635 14.3251 2.30635 12.6574V5.35414C2.30635 3.68647 3.64049 2.31782 5.28516 2.31782H12.7149C14.3481 2.31782 15.6937 3.68647 15.6937 5.35414V12.6574Z" fill="white"/>
<path d="M9.00067 4.8252C6.73494 4.8252 4.90625 6.69989 4.90625 9.01163C4.90625 11.3234 6.74644 13.1981 9.00067 13.1981C11.2549 13.1981 13.0951 11.3234 13.0951 9.01163C13.0951 6.69989 11.2664 4.8252 9.00067 4.8252ZM9.00067 11.7144C7.54002 11.7144 6.3554 10.5068 6.3554 9.01163C6.3554 7.51647 7.54002 6.30885 9.00067 6.30885C10.4613 6.30885 11.6459 7.51647 11.6459 9.01163C11.6459 10.4953 10.4613 11.7144 9.00067 11.7144Z" fill="white"/>
<path d="M13.3127 5.53829C13.8209 5.53829 14.2328 5.11606 14.2328 4.5952C14.2328 4.07434 13.8209 3.6521 13.3127 3.6521C12.8045 3.6521 12.3926 4.07434 12.3926 4.5952C12.3926 5.11606 12.8045 5.53829 13.3127 5.53829Z" fill="white"/>
</svg>
