<svg width="19" height="19" viewBox="0 0 19 19" fill="none" xmlns="http://www.w3.org/2000/svg">
<g clip-path="url(#clip0_710_427)">
<path opacity="0.3" d="M5.75785 16.4821C12.569 16.4821 16.2955 10.7436 16.2955 5.76863C16.2955 5.60731 16.292 5.44239 16.2849 5.28107C17.0098 4.74808 17.6354 4.08789 18.1323 3.33153C17.4572 3.63692 16.7404 3.83637 16.0064 3.92306C16.7792 3.45207 17.3579 2.71217 17.6351 1.84052C16.908 2.2786 16.1129 2.58762 15.2838 2.75435C14.7252 2.15088 13.9866 1.75131 13.1822 1.61742C12.3778 1.48353 11.5525 1.62277 10.8337 2.01362C10.115 2.40447 9.54292 3.02516 9.20594 3.77972C8.86897 4.53428 8.78587 5.38069 8.9695 6.18808C7.49731 6.11297 6.05708 5.72415 4.74217 5.04684C3.42727 4.36952 2.26704 3.41883 1.33671 2.25639C0.863869 3.08522 0.719179 4.06601 0.932047 4.99941C1.14492 5.93282 1.69937 6.74879 2.48272 7.28151C1.89463 7.26253 1.31942 7.10155 0.804611 6.81187V6.85848C0.804084 7.72828 1.09985 8.57143 1.64163 9.2446C2.18341 9.91777 2.93777 10.3794 3.77648 10.551C3.2317 10.7026 2.65994 10.7247 2.10542 10.6156C2.34209 11.3636 2.80256 12.0179 3.42256 12.487C4.04257 12.9562 4.79117 13.2169 5.56391 13.2326C4.25204 14.2803 2.6315 14.8486 0.96329 14.8459C0.667447 14.8454 0.371895 14.827 0.0782166 14.7907C1.77293 15.8961 3.74435 16.4832 5.75785 16.4821Z" fill="#FCFCFC"/>
</g>
<defs>
<clipPath id="clip0_710_427">
<rect width="18" height="18" fill="white" transform="translate(0.105255 0.0249023)"/>
</clipPath>
</defs>
</svg>
