<svg width="19" height="18" viewBox="0 0 19 18" fill="none" xmlns="http://www.w3.org/2000/svg">
<g clip-path="url(#clip0_990_571)">
<path d="M6.10721 16.3923C13.2344 16.3923 17.1338 10.7035 17.1338 5.77174C17.1338 5.61181 17.1301 5.44833 17.1227 5.2884C17.8813 4.76004 18.5359 4.10558 19.0558 3.35578C18.3494 3.65852 17.5993 3.85624 16.8312 3.94218C17.6399 3.47528 18.2455 2.7418 18.5355 1.87771C17.7748 2.31198 16.9427 2.61832 16.0752 2.7836C15.4907 2.18537 14.7178 1.78927 13.8761 1.65654C13.0344 1.52381 12.1707 1.66185 11.4186 2.0493C10.6665 2.43676 10.0679 3.05207 9.71529 3.80008C9.36268 4.54809 9.27573 5.38716 9.46788 6.18754C7.92738 6.11309 6.42033 5.72764 5.04442 5.05621C3.6685 4.38477 2.45444 3.44232 1.48095 2.28996C0.986168 3.11161 0.834764 4.08389 1.05751 5.00919C1.28025 5.9345 1.86043 6.7434 2.68013 7.27149C2.06475 7.25267 1.46285 7.09309 0.92416 6.80593V6.85213C0.923609 7.71438 1.2331 8.55022 1.80002 9.21755C2.36694 9.88487 3.1563 10.3425 4.03392 10.5127C3.46386 10.6629 2.86557 10.6848 2.28533 10.5766C2.53297 11.3182 3.01481 11.9668 3.66358 12.4319C4.31235 12.8969 5.09569 13.1553 5.90428 13.171C4.53154 14.2096 2.83581 14.7729 1.0902 14.7703C0.780632 14.7698 0.471367 14.7515 0.164062 14.7155C1.93741 15.8113 4.00029 16.3933 6.10721 16.3923Z" fill="white"/>
</g>
<defs>
<clipPath id="clip0_990_571">
<rect width="18" height="18" fill="white" transform="translate(0.609375)"/>
</clipPath>
</defs>
</svg>
