<svg width="21" height="18" viewBox="0 0 21 18" fill="none" xmlns="http://www.w3.org/2000/svg">
<path opacity="0.3" d="M6.76069 17.1261C14.144 17.1261 18.1835 10.9055 18.1835 5.51271C18.1835 5.33783 18.1796 5.15907 18.172 4.98419C18.9578 4.40643 19.6359 3.6908 20.1745 2.87091C19.4427 3.20195 18.6657 3.41815 17.87 3.51212C18.7078 3.00157 19.3351 2.19953 19.6356 1.25466C18.8474 1.72953 17.9855 2.06451 17.0868 2.24524C16.4813 1.59108 15.6806 1.15795 14.8087 1.01281C13.9367 0.867678 13.042 1.01862 12.2629 1.4423C11.4838 1.86598 10.8637 2.5388 10.4984 3.35674C10.1331 4.17468 10.0431 5.09218 10.2421 5.96739C8.64626 5.88597 7.08506 5.46449 5.65971 4.73029C4.23436 3.99608 2.97668 2.96553 1.96821 1.70545C1.45565 2.60391 1.2988 3.66708 1.52955 4.67888C1.7603 5.69068 2.36133 6.5752 3.21048 7.15266C2.57298 7.13208 1.94946 6.95758 1.39141 6.64358V6.6941C1.39084 7.63696 1.71145 8.55093 2.29874 9.28064C2.88603 10.0103 3.70375 10.5108 4.6129 10.6968C4.02237 10.8611 3.40257 10.885 2.80148 10.7668C3.05803 11.5776 3.55717 12.2869 4.22926 12.7954C4.90134 13.304 5.71282 13.5865 6.55046 13.6037C5.1284 14.7393 3.37174 15.3553 1.56342 15.3524C1.24273 15.3519 0.92235 15.3319 0.604004 15.2926C2.44107 16.4908 4.57807 17.1272 6.76069 17.1261Z" fill="#FCFCFC"/>
</svg>
