<svg width="251" height="168" viewBox="0 0 251 168" fill="none" xmlns="http://www.w3.org/2000/svg">
<path fill-rule="evenodd" clip-rule="evenodd" d="M155.676 65.4041C154.798 61.841 154.247 58.1604 152.975 54.7453C151.433 50.597 148.254 49.6799 144.771 52.4918C142.714 54.1493 141.328 54.0512 139.497 52.6845C135.775 49.8994 133.222 51.5337 131.757 55.1663C130.235 58.9363 128.694 58.6955 126.371 55.9264C123.728 52.772 121.014 52.5043 118.128 55.8658C115.457 58.9756 113.985 57.8373 113.15 54.2671C112.131 49.8887 109.955 47.762 105.244 50.4936C102.275 52.2171 100.603 50.2027 101.558 47.6424C103.615 42.1312 101.117 40.2932 96.3268 39.3318C93.2472 38.7073 93.0224 36.9784 94.9119 34.5696C97.49 31.2796 97.3491 28.2089 93.7076 25.6734C91.0491 23.8214 90.6762 22.2692 93.9502 20.4705C97.5721 18.4865 98.6178 16.0119 96.8781 11.4391C94.5907 5.44973 90.3639 5.9686 85.2204 6.0901C82.2336 5.60658 78.7207 6.0562 75.5038 7.44789C70.4777 9.6246 65.1624 10.415 59.8956 10.1492C43.2935 9.30167 33.4733 20.808 23.1447 30.5889C14.4719 38.8014 10.3022 50.3883 4.69093 60.8206C1.16533 67.3686 0.18226 74.2217 1.45798 81.5833C2.24122 86.0848 3.12083 90.827 2.51422 95.2644C1.15108 105.204 3.66323 113.806 9.59939 121.563C14.1811 127.549 17.6406 134.242 21.8212 140.44C29.2293 151.424 41.0031 156.908 52.6773 161.843C57.4069 163.842 63.0899 163.806 67.9982 165.897C74.612 168.721 81.0586 168.741 87.4906 165.438C90.0028 164.147 92.6524 163.626 95.5016 164.034C100.458 164.746 105.015 163.303 109.228 160.903C115.264 157.463 120.925 153.258 127.198 150.369C132.861 147.757 137.09 144.103 139.864 138.749C141.998 134.636 144.721 130.974 147.627 127.442C150.118 124.418 152.087 121.164 153.327 117.469C155.315 111.558 157.304 105.647 159.213 99.7106C161.337 93.0914 161.816 86.5433 159.326 79.7669C157.634 75.1565 156.856 70.2052 155.677 65.4043L155.676 65.4041ZM152.104 77.715C151.992 80.1236 150.372 81.5671 148.111 82.1398C145.77 81.8311 143.993 80.4805 143.958 78.4072C143.915 75.8237 145.981 74.0021 148.445 73.8539C150.584 73.7237 152.211 75.4205 152.104 77.7149L152.104 77.715ZM56.734 15.0346C59.5762 14.9811 60.9911 16.635 61.703 19.0205C60.4987 21.7914 59.7315 25.1099 56.311 24.6139C53.9737 24.2731 50.9889 22.348 51.0209 19.8431C51.053 17.0402 53.5366 15.0938 56.734 15.0349V15.0346ZM19.9886 47.0946C22.3312 47.0464 23.9834 47.8333 24.0066 50.4793C24.0262 53.0753 22.0297 54.1618 20.0885 54.3385C17.728 54.5508 16.5504 52.6631 16.4844 50.3972C16.4149 48.1116 17.8494 47.1625 19.9886 47.0946H19.9886ZM14.6628 121.651C12.7234 121.77 11.6618 119.891 11.9865 117.9C11.867 115.338 12.636 113.051 15.1017 112.785C17.3962 112.539 18.3703 114.634 18.5363 116.81C18.7468 119.617 17.1268 121.492 14.6628 121.651L14.6628 121.651ZM65.1342 158.75C62.6862 158.603 59.8673 159.097 59.7403 156.005C59.6279 153.252 62.3578 152.319 64.4202 152.43C66.5631 152.548 69.9314 152.63 70.1315 155.534C70.3563 158.866 67.0448 158.329 65.1342 158.75V158.75ZM131.857 133.282C128.956 133.235 128.205 131.207 128.099 128.918C127.999 126.739 129.082 125.869 131.502 125.886C134.083 125.91 135.816 126.209 135.727 129.043C135.828 131.913 134.603 133.319 131.857 133.282H131.857ZM139.291 127.795C137.297 123.733 134.273 121.431 129.648 122.826C126.431 123.795 124.816 126.295 124.957 129.535C125.169 134.438 128.597 136.379 132.968 137.152C132.567 140.474 130.19 142.201 127.723 143.179C121.121 145.791 115.649 150.185 109.731 153.87C104.935 156.856 100.003 158.912 94.1102 157.72C90.7059 157.026 87.7261 159.14 84.5754 160.045C82.1115 160.748 79.7795 162.088 77.1084 161.727C74.3821 161.356 70.4302 162.471 72.7086 156.871C73.8808 153.998 71.3508 151.696 68.3909 150.858C64.0731 149.636 59.3595 149.482 57.2342 153.944C55.7426 157.078 54.3598 156.334 52.2437 155.796C49.3015 155.052 46.9303 153.354 44.6625 151.454C43.112 150.149 41.7186 148.251 39.931 147.718C29.3311 144.569 25.4094 135.43 20.6632 126.959C19.7944 125.412 19.359 124.17 20.4402 122.423C22.2351 119.527 21.7088 116.328 20.4937 113.381C19.3947 110.722 16.7951 108.738 14.3527 110.276C9.53895 113.32 9.49784 109.886 8.52541 106.949C7.63332 104.26 7.27646 101.528 7.64757 98.7843C8.49864 92.5021 7.8706 86.2715 6.92142 80.1039C5.5244 71.0241 8.79128 63.5164 13.9458 56.4473C14.7719 55.3143 15.3215 55.0627 16.5668 55.8442C20.4599 58.2707 24.1334 58.1512 26.2514 53.6657C28.1784 49.5906 25.5306 45.7958 20.0711 44.0972C27.1402 32.671 37.3565 24.7852 49.0412 16.9098C49.0751 21.7701 49.3355 25.2529 53.5374 26.9442C59.2769 29.2512 64.8653 25.772 64.1925 19.606C63.8517 16.4908 64.924 15.6594 67.4611 15.3989C72.8243 14.8386 77.6737 12.4121 82.8533 11.1864C84.8695 10.7082 86.9659 10.2782 88.8034 11.1917C90.8196 12.1962 92.7126 13.3613 89.9471 16.0927C84.7374 21.2435 84.6908 22.8924 88.9105 29.3313C89.7955 30.6801 89.8151 31.533 89.0978 32.7463C88.7267 33.3707 88.4306 34.0719 88.2468 34.7713C87.6027 37.2246 87.6616 40.8288 89.5135 41.4034C97.4496 43.8691 93.6832 56.8458 103.785 56.7869C105.973 56.7762 107.466 57.042 108.688 59.2366C111.095 63.5597 115.261 63.7309 119.318 62.2965C121.245 61.6167 122.446 60.5872 124.644 62.0948C128.508 64.7426 132.337 63.9486 135.494 60.4373C136.327 59.5096 136.932 58.1553 138.571 59.0617C139.298 59.0778 140.027 59.1509 140.75 59.1028C143.239 58.9297 147.087 57.6575 147.922 58.737C149.632 60.9494 149.478 64.4999 150.534 67.3368C152.072 71.4493 149.772 71.6082 146.834 71.3994C141.837 73.7099 140.232 76.7608 141.942 80.6916C143.728 84.8024 147.48 85.6821 153.81 83.4624C157.064 92.4564 149.276 116.526 139.29 127.796L139.291 127.795Z" fill="#FF0072"/>
<path fill-rule="evenodd" clip-rule="evenodd" d="M191.159 74.6991C191.986 69.409 188.062 66.8648 184.938 63.9316C178.59 57.9668 174.155 58.5574 169.437 65.8318C167.62 68.6347 167.167 71.6321 168.457 74.728C169.471 77.1634 169.476 79.4079 168.939 82.0662C167.397 89.7401 167.972 90.2201 176.777 90.2201C183.733 93.5834 186.164 85.9952 190.363 82.1109C192.305 80.3142 190.77 77.183 191.159 74.6992L191.159 74.6991ZM185.473 75.0167C185.407 75.8178 185.043 76.5796 184.235 76.5796C180.133 76.5725 180.472 79.1418 181.166 81.825C181.969 84.9224 179.792 84.5744 178.023 84.7136C175.243 84.9366 173.587 84.4264 175.116 81.0899C176.203 78.7116 175.218 76.3958 174.167 74.2226C172.722 71.2395 173.705 68.9448 175.971 66.8789C177.282 65.6799 178.636 65.4765 179.833 66.7719C182.108 69.2305 185.825 70.7524 185.473 75.0167L185.473 75.0167Z" fill="#FF0072"/>
<path fill-rule="evenodd" clip-rule="evenodd" d="M245.549 119.362C241.64 118.5 237.62 118.124 233.652 117.532C228.217 117.25 228.24 117.244 229.475 122.565C229.721 123.625 229.787 124.74 229.825 125.832C230.057 132.419 233.029 134.771 239.563 133.104C242.954 132.237 245.968 130.367 248.307 127.711C251.631 123.932 250.539 120.467 245.549 119.362V119.362ZM235.941 127.222C235.311 126.963 234.678 124.727 235.004 124.419C237.399 122.16 239.552 125.37 243.026 123.983C240.399 126.949 238.453 128.244 235.941 127.222L235.941 127.222Z" fill="#FF0072"/>
<path fill-rule="evenodd" clip-rule="evenodd" d="M238.427 77.7919C238.435 73.0709 232.21 64.8548 228.475 64.6566C227.185 64.5905 220.027 74.9427 220.1 76.7747C220.218 79.7829 227.934 85.8847 231.569 85.8422C236.161 85.7958 238.422 83.1373 238.427 77.7919V77.7919ZM231.202 79.7456C229.353 79.362 226.984 78.5234 226.807 76.3235C226.691 74.8979 228.11 72.6534 229.546 72.6784C231.771 72.7194 232.609 74.8961 232.854 76.9729C232.641 78.1969 233.196 80.1613 231.202 79.7455V79.7456Z" fill="#FF0072"/>
<path fill-rule="evenodd" clip-rule="evenodd" d="M226.601 56.7448C226.772 53.3049 228.143 49.9186 227.072 46.4198C225.486 41.2334 220.777 39.3009 216.535 38.9049C212.956 38.5694 214.857 43.5295 213.591 45.9023C212.722 47.5349 213.082 49.824 212.781 53.0122C210.711 56.7822 214.379 57.0302 217.577 57.5119C219.737 57.842 221.93 57.9955 224.114 58.1239C225.159 58.181 226.522 58.3094 226.601 56.7447L226.601 56.7448ZM219.883 52.0041C218.674 52.0023 218.729 50.8301 218.726 49.9684C218.72 48.9175 218.626 47.6507 220.019 47.3849C221.505 47.1012 221.778 48.2092 221.876 49.3796C221.787 50.6928 221.509 52.0042 219.883 52.0042L219.883 52.0041Z" fill="#FF0072"/>
<path fill-rule="evenodd" clip-rule="evenodd" d="M170.084 28.9284C172.13 28.4039 173.952 27.2763 175.363 25.6723C177.369 23.3939 176.708 21.301 173.699 20.6338C171.338 20.1129 168.913 19.8863 166.514 19.5258C163.234 19.3599 163.25 19.3563 163.994 22.5643C164.143 23.2066 164.182 23.8793 164.205 24.5358C164.342 28.5182 166.141 29.9347 170.084 28.9285L170.084 28.9284ZM167.334 23.6863C168.778 22.3249 170.076 24.2626 172.177 23.4222C170.594 25.21 169.416 25.9932 167.9 25.3759C167.518 25.2242 167.138 23.8736 167.334 23.6863L167.334 23.6863Z" fill="#FF0072"/>
<path fill-rule="evenodd" clip-rule="evenodd" d="M143.452 11.9509C146.035 11.9224 147.306 10.4236 147.309 7.41907C147.311 4.76419 143.81 0.139323 141.71 0.0324422C140.986 -0.00859393 136.961 5.81861 136.998 6.84996C137.064 8.53958 141.409 11.9743 143.452 11.951L143.452 11.9509ZM142.313 4.54102C143.564 4.56421 144.037 5.7864 144.172 6.9604C144.053 7.64553 144.365 8.75531 143.246 8.51802C142.206 8.30571 140.87 7.82933 140.774 6.59646C140.708 5.79179 141.5 4.52681 142.313 4.54106V4.54102Z" fill="#FF0072"/>
<path fill-rule="evenodd" clip-rule="evenodd" d="M110.393 41.9545C111.55 42.1257 112.724 42.2096 113.89 42.2792C114.451 42.3095 115.18 42.3809 115.223 41.5423C115.318 39.701 116.048 37.89 115.477 36.0165C114.627 33.2421 112.108 32.2072 109.833 31.9949C107.921 31.8165 108.938 34.4678 108.26 35.7399C107.794 36.6124 107.987 37.8345 107.824 39.5438C106.722 41.5618 108.683 41.692 110.394 41.9542L110.393 41.9545ZM111.703 36.536C112.499 36.3825 112.645 36.9767 112.699 37.6029C112.65 38.3041 112.502 39.0071 111.632 39.0071C110.988 39.0071 111.016 38.3808 111.011 37.9169C111.011 37.3567 110.957 36.6769 111.703 36.536V36.536Z" fill="#FF0072"/>
<path fill-rule="evenodd" clip-rule="evenodd" d="M121.309 94.9891C116.199 95.1818 112.367 99.1463 112.397 104.208C112.431 109.641 117.175 113.934 122.957 113.757C127.368 113.629 131.359 109.19 131.263 104.52C131.152 99.13 126.613 94.789 121.309 94.9891ZM121.669 110.638C118.231 110.465 114.779 108.248 115.016 104.074C115.218 100.57 117.211 97.8351 122.285 97.8799C125.195 98.1225 127.716 99.9959 127.937 103.88C128.185 108.091 125.563 110.84 121.669 110.639V110.638Z" fill="#FF0072"/>
<path fill-rule="evenodd" clip-rule="evenodd" d="M80.6567 52.9721C80.7905 46.7666 76.0499 41.8295 70.0692 41.9474C64.69 42.0526 60.4239 46.4543 60.3773 51.9407C60.3309 57.6803 65.0252 62.5246 70.7347 62.6278C76.2262 62.7313 80.5425 58.5277 80.6567 52.9716V52.9721ZM62.8378 52.1603C62.8218 48.1779 66.1118 44.9344 70.2656 44.8417C74.1176 44.7543 78.1354 48.6188 78.198 52.4709C78.2551 55.9179 74.2888 59.8378 70.5885 59.9982C66.6758 60.1677 62.852 56.3031 62.8378 52.1603Z" fill="#FF0072"/>
<path fill-rule="evenodd" clip-rule="evenodd" d="M77.8199 94.9834C73.7091 95.1243 70.5744 99.1816 70.5278 104.411C70.4814 109.86 74.18 114.353 78.6941 114.335C82.357 114.317 85.6596 109.966 85.6098 105.216C85.5545 99.5103 81.9968 94.8372 77.8199 94.9838V94.9834ZM77.8538 110.948C74.5869 110.895 72.8866 107.917 73.3291 104.723C73.7591 101.615 74.0945 97.654 78.7603 98.0573C82.1681 98.3571 81.6561 101.661 82.5053 103.997C80.6944 106.25 82.1574 111.016 77.8538 110.948V110.948Z" fill="#FF0072"/>
<path fill-rule="evenodd" clip-rule="evenodd" d="M29.7539 74.6216C24.5208 74.5681 20.4046 78.711 20.4082 84.0403C20.4082 89.3606 24.8616 93.6267 30.3819 93.602C35.2011 93.5842 39.0246 89.766 39.1475 84.8524C39.2777 79.434 34.9136 74.6773 29.7539 74.6221V74.6216ZM29.2204 91.02C25.85 90.3242 23.3876 87.9761 23.056 84.2934C22.7366 80.725 26.4014 76.7551 29.763 77.0369C33.822 77.3795 35.8488 79.938 36.2288 83.3977C36.2895 87.0089 32.1305 91.6247 29.2204 91.02V91.02Z" fill="#FF0072"/>
<path fill-rule="evenodd" clip-rule="evenodd" d="M101.906 130.849C96.3076 130.431 92.163 133.957 91.8917 139.366C91.6419 144.398 95.7438 148.712 101.054 148.999C106.033 149.269 110.008 145.895 110.387 141.083C110.805 135.798 107.022 131.236 101.907 130.849H101.906ZM101.125 146.334C97.7172 146.179 94.8054 144.312 94.8552 140.103C94.9069 135.978 96.9748 133.336 101.114 133.409C104.95 133.479 106.806 136.141 107.127 139.945C106.784 143.649 104.98 146.505 101.125 146.334H101.125Z" fill="#FF0072"/>
<path fill-rule="evenodd" clip-rule="evenodd" d="M56.1321 113.29C51.7483 113.29 49.2648 115.681 48.8331 119.895C48.4245 123.87 52.1963 127.594 56.4856 127.607C60.5982 127.619 62.75 125.287 63.2583 122.279C63.2512 116.555 60.3894 113.29 56.1321 113.29ZM55.9661 124.413C53.3273 124.579 51.7322 123.487 51.7536 120.673C51.7732 117.663 53.2184 115.713 56.3266 115.735C58.862 115.758 60.1609 117.492 60.5677 119.946C60.218 122.672 58.7603 124.24 55.9664 124.413L55.9661 124.413Z" fill="#FF0072"/>
<path fill-rule="evenodd" clip-rule="evenodd" d="M102.196 86.7943C106.309 86.905 107.988 84.259 108.243 81.0155C108.12 76.5693 104.84 73.2936 101.129 73.5932C97.2523 73.9001 94.8828 76.2642 94.9773 80.0307C95.0844 84.3378 97.9659 86.6806 102.196 86.7948V86.7943ZM101.261 76.1999C103.533 76.0465 105.231 77.6255 105.454 79.7737C105.704 82.1966 103.754 83.1404 101.902 83.508C99.033 83.5669 97.8268 81.8202 97.7091 79.7398C97.5949 77.6897 99.3363 76.3266 101.261 76.1999Z" fill="#FF0072"/>
</svg>
